<?xml version="1.0" encoding="UTF-8" standalone="no"?>
<!-- Created with Inkscape (http://www.inkscape.org/) -->

<svg
   xmlns:dc="http://purl.org/dc/elements/1.1/"
   xmlns:cc="http://creativecommons.org/ns#"
   xmlns:rdf="http://www.w3.org/1999/02/22-rdf-syntax-ns#"
   xmlns:svg="http://www.w3.org/2000/svg"
   xmlns="http://www.w3.org/2000/svg"
   xmlns:sodipodi="http://sodipodi.sourceforge.net/DTD/sodipodi-0.dtd"
   xmlns:inkscape="http://www.inkscape.org/namespaces/inkscape"
   width="165mm"
   height="165mm"
   viewBox="0 0 623.62206 623.62204"
   id="svg2"
   version="1.1"
   inkscape:version="0.92.3 (2405546, 2018-03-11)"
   sodipodi:docname="logo.svg">
  <defs
     id="defs4" />
  <sodipodi:namedview
     id="base"
     pagecolor="#ffffff"
     bordercolor="#666666"
     borderopacity="1.0"
     inkscape:pageopacity="0.0"
     inkscape:pageshadow="2"
     inkscape:zoom="0.7"
     inkscape:cx="160.96423"
     inkscape:cy="272.75021"
     inkscape:document-units="px"
     inkscape:current-layer="layer1"
     showgrid="false"
     fit-margin-top="10"
     fit-margin-right="20"
     fit-margin-bottom="10"
     fit-margin-left="20"
     inkscape:window-width="1680"
     inkscape:window-height="1013"
     inkscape:window-x="0"
     inkscape:window-y="0"
     inkscape:window-maximized="1" />
  <metadata
     id="metadata7">
    <rdf:RDF>
      <cc:Work
         rdf:about="">
        <dc:format>image/svg+xml</dc:format>
        <dc:type
           rdf:resource="http://purl.org/dc/dcmitype/StillImage" />
        <dc:title></dc:title>
      </cc:Work>
    </rdf:RDF>
  </metadata>
  <g
     inkscape:label="Ebene 1"
     inkscape:groupmode="layer"
     id="layer1"
     transform="translate(-11.144805,-174.00442)">
    <path
       style="opacity:1;fill:#000000;fill-opacity:1;stroke:#000000;stroke-width:3;stroke-linejoin:miter;stroke-miterlimit:4;stroke-dasharray:3, 3;stroke-dashoffset:0;stroke-opacity:1"
       id="path4148"
       d="m 115.64756,732.11084 c 1.84682,1.91554 -0.62337,-6.99282 1.74584,-6.89601 0.93412,0.0382 1.27057,1.38628 1.7649,2.17981 1.43205,2.29882 2.06628,7.37532 6.44834,5.41672 1.89314,-0.84616 3.1236,-2.72817 4.6854,-4.09225 8.15478,2.29523 4.1945,2.35684 12.9633,-0.52594 2.69886,-0.88727 5.6178,-1.30898 8.06828,-2.74644 3.27776,-1.92276 5.406,-5.58457 8.85466,-7.18064 3.04291,-1.4083 6.70404,-0.65457 9.94358,-1.5194 3.57339,-0.95395 6.9232,-2.60499 10.38479,-3.90748 3.24267,-2.53357 17.53888,-13.69594 20.77318,-16.2531 3.40632,-2.69317 7.19657,-4.97247 10.18282,-8.12501 3.62356,-3.82535 6.12258,-8.58894 9.48908,-12.64236 15.79415,-19.01692 3.10777,0.65544 16.86352,-23.2601 2.28605,-4.38625 4.95961,-8.59138 6.85816,-13.15873 7.17685,-17.26537 10.28868,-37.41502 12.23885,-55.84872 2.40167,-22.70138 2.21284,-30.57329 3.03486,-54.30278 0.46868,-9.11687 0.81369,-18.24094 1.40605,-27.35061 0.53949,-8.29648 1.63129,-16.55626 1.98916,-24.86256 0.74439,-17.27758 0.59863,-57.69826 0.90865,-74.21803 0.65185,-34.73446 0.69708,-29.70861 3.26786,-61.38783 0.58827,-9.44164 1.27261,-18.8778 1.76481,-28.32494 0.50114,-9.61856 0.61269,-19.25651 1.21507,-28.86927 0.10356,-1.65268 3.09717,-33.4659 3.44479,-37.02262 0.40319,-4.12518 1.0609,-8.23025 1.26375,-12.37012 0.22923,-4.67838 0.0206,-9.36797 0.0309,-14.05195 0.10731,-2.04884 -0.95783,-4.54294 0.32193,-6.14653 0.75856,-0.95052 2.7718,0.56874 3.23067,1.69495 0.83453,2.04819 0.25136,4.42315 0.16256,6.63304 -0.433,7.2163 -0.86599,14.4326 -1.29899,21.6489 -0.40267,2.09407 -1.06578,4.15452 -1.20801,6.2822 -0.33913,5.07332 -0.15432,10.16812 -0.23148,15.25218 -1.97713,43.72447 0.7179,-15.60789 -1.31498,28.27222 -0.21334,4.60491 -0.29283,9.2174 -0.61921,13.81568 -0.22442,3.16172 -0.81248,6.29078 -1.03237,9.45283 -0.4964,13.71522 -0.1226,7.5058 -0.96904,18.63682 0.97905,17.23939 1.16262,7.99628 0.42689,16.00423 -0.0992,1.08011 0.82497,3.35092 -0.2544,3.24401 -4.75149,-0.47063 -3.53844,-5.34191 -3.56943,-7.85371 -0.11512,-9.33166 -0.30169,-18.66229 -0.45254,-27.99344 1.25432,-4.82637 1.155,-9.85927 1.31913,-14.80536 0.1559,-4.69794 -0.65466,-3.14625 0.68357,-5.192 -2.56932,-26.44159 -0.94678,-5.40841 0.3368,-4.29874 0.96793,0.83679 1.8761,-2.22241 3.15508,-2.18617 0.0697,0.002 0.40709,3.29928 0.58135,3.74005 0.0747,0.1889 0.31593,0.25542 0.47389,0.38312 -0.33269,9.72407 -0.66538,19.44813 -0.99808,29.17219 0.0327,1.87277 0.14344,3.74581 0.0982,5.61833 -0.0696,2.8828 -0.52153,5.74636 -0.63003,8.62797 -0.275,7.30314 -0.072,8.54655 0.17438,16.72338 -0.22511,-2.61684 0.43372,-10.23136 -0.67532,-7.8505 -1.34107,2.87897 -0.10531,6.3514 -0.10581,9.52739 0.0343,3.23704 0.0685,6.47408 0.10277,9.71111 0.38607,1.32077 1.02264,2.59296 1.1582,3.96231 0.35916,3.62795 0.14247,7.29094 0.31632,10.93247 0.16426,3.44059 0.46523,6.87328 0.69785,10.30992 0.44127,2.69325 0.88255,5.3865 1.32383,8.07975 0.79965,0.82601 2.10214,1.36733 2.39894,2.47802 1.03248,3.86385 0.67216,7.98697 1.44599,11.91081 0.50584,2.56495 1.73897,4.93888 2.37696,7.47419 4.99737,19.85918 -0.64344,2.77895 5.16871,19.15741 1.03987,2.82271 2.07973,5.64543 3.11959,8.46814 1.24406,1.56653 2.89104,2.8846 3.73218,4.69959 1.88141,4.05967 4.47168,16.24468 5.84526,20.3588 8.93679,26.7673 -3.35619,-16.03228 5.47122,15.83649 0.70852,2.71746 1.62223,5.38954 2.12556,8.15237 0.65911,3.61798 0.87626,7.30283 1.35433,10.94915 0.59889,4.56788 1.94231,12.6559 2.06792,17.32109 0.19829,7.36507 -0.46185,16.24147 -0.89747,23.66323 0.1894,6.26953 0.70093,18.87037 0.44185,25.50975 -0.0888,2.27716 -0.64747,4.51939 -0.74158,6.79633 -0.15681,3.79379 0.14509,7.59724 -0.0102,11.3911 -0.85904,20.99034 -0.83687,-12.6085 -0.62569,12.58866 2.56173,5.30918 1.62535,11.24977 1.79742,16.93642 0.0627,2.07216 -0.11787,4.20737 0.44134,6.20363 0.11381,0.40628 0.83897,-0.0905 1.25846,-0.13573 0.055,2.09021 0.10996,4.18041 0.16494,6.27062 0.0724,-4.46233 1.39737,0.009 1.61425,-0.51252 0.43371,-1.04236 0.70447,-4.46041 0.54915,-3.34215 -0.47289,3.4045 0.16717,7.19686 -1.50193,10.20158 -0.72103,1.298 -1.12181,-9.58185 -1.13345,-9.81382 1.33272,4.78382 0.80298,3.71951 0.55096,-2.80556 -0.0541,-1.40104 -0.74248,-5.46606 -0.13127,-4.20421 0.96176,1.98557 0.25452,4.52873 1.24367,6.50079 2.00034,3.98802 -2.48844,-14.13315 0.64931,-0.76703 2.26877,-0.42044 1.85399,-5.99605 3.88692,-5.23065 1.79386,0.6754 -0.77016,3.875 -0.33115,5.74084 0.2871,1.22018 0.82567,-4.92386 0.81831,-3.67039 -0.0319,5.42542 -1.88216,11.13528 -0.0822,5.04036 -0.19167,4.29619 -0.38668,2.54896 0.0876,5.27351 0,0 -3.99261,26.72788 -3.99261,26.72788 v 0 c 0.96718,-10.60637 1.48,-11.61178 -0.49345,-3.34979 0.0783,-1.27329 0.16849,-2.54591 0.23499,-3.81988 0.0462,-0.88541 0.20012,-1.77655 0.10313,-2.65784 -0.0254,-0.23035 -0.29259,0.3839 -0.32819,0.6129 -0.25472,1.63851 -2.14842,4.55912 -0.5359,4.94562 6.56665,1.57394 0.91686,-8.8245 4.02165,-2.24426 -1.43633,-9.31238 -0.2414,-2.37052 -0.37497,-0.0831 -0.039,0.66779 -1.14954,-2.28435 -1.18902,-1.61659 -0.14307,2.4197 0.79881,4.89136 0.30869,7.26522 -0.23685,1.1472 -0.74737,-2.22039 -1.12106,-3.33058 -0.13095,10.55058 1.0908,8.68264 -2.29898,3.32628 -2.30196,-3.63743 -1.24882,0.47238 -2.01048,-4.80913 -0.15864,-1.10006 0.6724,-3.13051 -0.42491,-3.30713 -1.09837,-0.1768 -0.96817,2.00332 -1.45225,3.00498 0.008,-1.5723 0.13521,-14.03927 -0.0917,-15.92256 -0.1011,-0.83932 -1.04082,-1.45873 -1.0603,-2.30391 -0.10888,-4.72261 0.67162,-9.43138 0.68084,-14.15524 0.009,-4.58194 -2.0004,-9.06297 -0.84525,-13.71983 0.1145,-5.66324 0.2759,-11.32573 0.3435,-16.98972 0.0405,-3.39222 -0.0968,-6.78579 -0.0193,-10.17736 0.29507,-12.90032 0.5435,-4.15818 0.97751,-16.70469 0.73266,-21.18002 -0.55463,-1.44026 0.67905,-18.2975 -0.8392,-9.76246 -0.48136,-3.22588 0.17524,-19.63833 -0.0646,-1.04302 -1.4862,-1.62321 -1.67289,-2.65143 -0.66858,-3.68238 -0.4824,-7.47085 -0.84131,-11.19618 -1.17658,-12.21239 -0.4032,-8.33514 -3.56084,-17.90396 -0.8073,-2.94345 -1.65887,-5.87512 -2.4219,-8.83036 -0.89671,-3.47299 -1.44579,-7.042 -2.55681,-10.45248 -1.74643,-5.36099 -5.36903,-10.00562 -6.38531,-15.66331 -1.1574,-3.77501 -1.43424,-7.82172 -2.92115,-11.4795 -0.73162,-1.79976 -2.40437,-3.05232 -3.60655,-4.57849 -1.06784,-1.97717 -2.42682,-3.82291 -3.20352,-5.93151 -3.17338,-8.61511 -1.94028,-10.4547 -4.61795,-19.2046 -0.55674,-1.81927 -1.98109,-3.31875 -2.41669,-5.17076 -0.22455,-0.95473 -2.24603,-18.91463 -2.4134,-20.38201 -0.53241,-3.83977 -1.67532,-11.55395 -1.93193,-15.46926 -0.21189,-3.233 -0.15538,-6.47836 -0.29214,-9.71541 -0.10777,-2.55055 -0.26071,-5.09933 -0.44139,-7.64576 -0.1355,-1.90988 -0.50023,-3.80695 -0.50705,-5.72162 -0.0206,-5.76781 0.28336,-11.53221 0.42504,-17.29831 -0.28242,-4.51027 -0.76209,-9.0125 -0.84726,-13.5308 -0.0267,-1.41552 0.46306,-2.80135 0.51272,-4.21625 0.0866,-2.46703 -0.1684,-4.93716 -0.10489,-7.40489 0.0294,-1.14267 0.41372,-2.26503 0.38319,-3.40767 -0.0851,-3.187 -0.50393,-12.71677 -0.72902,-9.53659 -0.40315,5.69579 0.12775,11.41937 0.19162,17.12905 -0.11012,-0.31181 -0.25349,-0.61379 -0.33037,-0.93541 -0.091,-0.38095 0.13947,-1.40117 -0.17108,-1.1625 -1.20925,0.92935 2.53372,7.14883 3.98326,2.80317 0.68822,-2.06322 -2.13999,-15.67464 -1.32552,-6.38888 -0.21115,-0.009 -0.62683,-0.2388 -0.63346,-0.0276 -0.0808,2.57257 0.35346,5.13801 0.39217,7.71155 0.0222,1.4759 -0.13976,2.94882 -0.20963,4.42323 -0.2166,0.60439 -0.61615,1.17202 -0.64978,1.81317 -0.41597,7.92822 1.9354,5.27922 -0.5054,7.68377 0.0942,-3.24001 0.0267,-6.48876 0.28249,-9.72003 0.0446,-0.56321 1.07533,-1.25712 0.61209,-1.58053 -1.64619,-1.14929 -3.90488,-0.62143 -3.18873,0.41184 0.17215,0.2484 0.58862,0.74399 0.75971,0.49486 0.53657,-0.78137 0.51904,-1.82328 0.77856,-2.73492 4.13319,-5.7251 -0.20772,1.05577 1.57711,-14.51719 0.18593,-1.62223 1.61662,-2.94189 1.77021,-4.56749 0.51604,-5.46171 -0.0753,-10.9784 0.21622,-16.45668 0.18871,-3.54668 0.81507,-7.05647 1.2226,-10.58471 0.23721,-4.54055 0.47441,-9.08109 0.71162,-13.62164 0.13401,-4.7164 0.31251,-9.43175 0.40205,-14.1492 0.0839,-4.42147 0.14387,-8.84408 0.11831,-13.26628 -8.4e-4,-0.14567 -0.0674,-0.32394 -0.19724,-0.38996 -0.23159,-0.11774 -0.9013,0.12256 -0.77256,-0.10311 0.63438,-1.11197 1.65354,-1.95501 2.49641,-2.91858 0.27309,-0.31219 -0.52447,0.64271 -0.78671,0.96407 -0.86013,-1.18873 -2.04737,-4.93322 -2.5804,-3.56618 -1.59721,4.09626 -0.79106,8.75771 -1.1524,13.13948 -0.49066,5.94986 -1.03855,11.8962 -1.40359,17.85509 -0.50433,8.23246 -0.85566,16.47384 -1.20423,24.71436 -0.41774,9.87581 -0.35697,19.77663 -1.09466,29.63371 -0.54725,7.31225 -1.83764,14.54982 -2.75646,21.82473 -4.15462,47.61947 -0.99405,5.02548 -3.17452,62.00575 -0.3864,10.09733 -1.36807,20.16841 -1.65125,30.26916 -0.35095,12.51756 0.0923,25.04881 -0.25059,37.56659 -0.25356,9.25772 -1.32143,18.48231 -1.53813,27.74096 -0.28615,12.22565 0.0201,24.45799 0.0301,36.68699 -1.7465,29.96314 -3.12009,59.81389 -10.69432,89.01455 -1.5294,5.89624 -3.03519,11.82372 -5.1854,17.52295 -1.84733,4.89647 -4.51331,9.44363 -6.76997,14.16544 -2.6612,3.96434 -5.12376,8.0695 -7.98359,11.89302 -3.56842,4.77089 -14.22384,17.05218 -18.65492,21.03188 -3.1593,2.83746 -7.11025,4.71553 -10.21349,7.61419 -20.25586,18.92049 0.12825,5.21216 -20.67384,17.75596 -28.825,17.39595 11.40055,-8.89937 -19.64265,20.47924 -6.94042,6.56826 -16.96827,0.39472 -24.34518,5.37262 -2.42727,1.63791 -3.84563,4.41687 -5.76844,6.6253 -9.45362,8.76766 -0.42661,0.88476 -8.38378,6.77597 -0.94495,0.6996 -1.65165,2.87023 -2.67762,2.296 -1.53689,-0.86018 -0.56658,-5.95698 -1.97571,-4.90042 -2.72338,2.04196 0.0804,14.24563 -2.08439,2.46499 0,0 0,-20.17577 0,-20.17577 z"
       inkscape:connector-curvature="0" />
    <path
       style="opacity:1;fill:#000000;fill-opacity:1;stroke:#000000;stroke-width:3;stroke-linejoin:miter;stroke-miterlimit:4;stroke-dasharray:3, 3;stroke-dashoffset:0;stroke-opacity:1"
       id="path4150"
       d="m 382.54224,323.07239 c -0.41084,1.52615 -0.20364,5.77816 -1.23253,4.57845 -2.18284,-2.54526 -1.05261,-6.89638 -3.05921,-9.58276 -0.69687,-0.93296 -2.33662,0.42627 -3.34434,1.00983 -1.55055,0.89791 -2.68321,2.40007 -4.19762,3.35766 -2.5625,1.62032 -8.73819,4.09555 -11.36205,5.20929 -9.0423,1.91524 -6.375,0.2153 -14.14114,7.56582 -2.58364,2.44536 -4.42056,5.72832 -7.36729,7.72124 -2.197,1.48587 -5.33615,0.99268 -7.58834,2.3935 -2.74359,1.70646 -4.53845,4.61392 -7.01472,6.68934 -2.06688,1.73231 -4.38746,3.13717 -6.58119,4.70576 -0.27619,16.50745 -8.79169,-0.1417 -11.33735,2.80358 -1.24787,4.54073 -2.49575,9.08146 -3.74363,13.62219 -1.33227,-1.10076 -2.46333,-4.0992 -3.9968,-3.30229 -6.75251,3.5091 0.99879,13.91399 -6.12284,1.03557 -0.70431,4.1443 -0.63709,8.49676 -2.11293,12.4329 -0.3228,0.86094 -1.88545,0.84286 -2.72023,0.4574 -0.54211,-0.25032 -4.96689,-5.73736 -6.06451,-5.58143 -1.48783,0.21135 -1.9348,2.30422 -2.99104,3.37317 -0.94968,0.96111 -2.0113,1.80477 -3.01695,2.70715 -0.99586,0.57134 -1.99171,1.14268 -2.98757,1.71402 -1.01207,-0.47214 -1.98776,-1.80109 -3.0362,-1.41642 -1.37315,0.50379 -1.68466,2.39795 -2.6453,3.5009 -0.73962,0.84918 -1.73314,3.21419 -2.43948,2.33714 -4.72356,-5.86518 -1.48834,-20.75728 -4.07705,3.19472 -2.68735,5.29253 -2.30857,-6.17751 -3.32114,-4.58501 -1.63876,2.5773 0.51883,6.19811 -0.22741,9.15972 -0.2634,1.04532 -0.71106,-3.8202 -1.33883,-2.94385 -1.03435,1.44391 -0.14957,3.5527 -0.36066,5.31628 -0.11742,0.981 -0.41502,1.93193 -0.62254,2.89789 -1.1197,12.78247 0.56482,1.50402 -2.71656,-1.89189 -0.99957,-1.03447 -0.78128,2.76921 -1.13556,4.16339 -3.89681,15.3352 1.3302,1.30734 -3.42328,2.76097 -1.34446,0.41114 -1.22473,2.53111 -1.8371,3.79666 -0.81206,-0.91403 -1.33301,-3.26924 -2.43618,-2.74208 -1.6054,0.76717 -1.32401,3.30612 -2.09743,4.90852 -0.68457,1.41833 -1.28275,2.91696 -2.27136,4.14291 -0.97523,1.20936 -3.56625,2.95185 -5.34084,1.71429 -1.36009,-0.9485 -2.03701,-2.61699 -3.05551,-3.92549 -4.33858,5.51816 -1.43102,1.23806 -5.07973,8.97559 -0.77287,1.63897 -0.67442,4.80759 -2.48628,4.83428 -1.88969,0.0278 -1.27519,-4.23291 -3.09237,-4.75211 -1.2787,-0.36534 -1.71711,2.04452 -2.40886,3.18032 -0.83921,1.3779 -1.44309,2.886 -2.16464,4.329 -0.77573,0.0252 -1.6007,0.34877 -2.32718,0.0756 -7.15662,-2.69092 5.29355,-9.13003 -3.24863,9.95352 -0.71411,1.59533 -0.88725,-6.03316 -2.1213,-4.79535 -3.31832,3.32844 1.52675,15.21327 -2.79938,2.22974 -0.31499,0.8262 -0.5854,1.67081 -0.94497,2.4786 -1.48058,3.32624 -0.483,-0.85209 -1.29525,4.82528 -0.15378,1.07489 -0.0113,2.23529 -0.45745,3.22522 -0.13333,0.2958 -0.45611,-0.4616 -0.68417,-0.6924 -0.16043,0.69849 -0.32086,1.39698 -0.48129,2.09547 -0.30011,-1.92614 1.03386,-6.02143 -0.90032,-5.77844 -1.9703,0.24753 -0.0979,3.98222 -0.41092,5.94318 -0.0355,0.22217 -0.42235,-0.27303 -0.4588,-0.49504 -0.36663,-2.23329 0.97755,-5.26549 -0.73062,-6.75014 -1.44304,-1.25422 -0.15997,3.82885 -0.45751,5.71748 -0.066,0.41868 -0.4122,0.74071 -0.6183,1.11107 -2.17772,-6.23431 0.54751,0.22311 -1.59623,1.30031 -0.92412,0.46435 -0.18385,-3.09369 -1.19234,-2.86442 -1.13621,0.2583 -0.29847,2.40799 -0.97451,3.35702 -0.24756,0.34752 -0.83778,-0.27051 -1.26128,-0.21843 -0.45349,0.0558 -0.84302,0.35272 -1.26453,0.52908 -2.38225,-2.06827 -0.45125,-1.20826 -2.72377,-0.2144 -0.8294,0.36273 -2.55043,-0.11958 -2.66492,0.29067 -1.8757,6.72121 1.11523,9.50962 -2.1403,5.59337 -2.78583,2.18867 0.69348,-0.77131 -2.19106,2.70412 -0.2475,0.2982 -0.64998,0.4222 -0.97498,0.6333 0,0 -1.46743,-22.13048 -1.46743,-22.13048 v 0 c 0.20371,-1.96261 0.16812,-3.96505 0.61112,-5.88783 0.10967,-0.47598 0.66457,-1.43813 0.99356,-1.07709 0.90166,0.98952 0.96058,2.49916 1.44088,3.74874 0.81929,-1.21055 1.89814,-2.61809 2.23809,-4.06396 0.47746,-2.03072 -1.12276,-6.71482 0.89719,-6.19365 2.3088,0.59569 -0.5098,7.1302 1.86405,6.90608 2.70817,-0.25568 -1.65943,-7.64732 2.22668,-7.85097 3.35667,9.90922 0.45967,3.51677 2.41801,-4.49619 0.14171,-0.57981 0.74358,1.29557 1.33218,1.19652 0.64943,-0.10928 0.4946,-1.48793 1.14123,-1.61275 3.48136,-0.67201 -0.89078,3.51586 2.18006,0.0513 1.76794,-1.87547 0.34506,-0.90204 1.71377,2.0438 0.22941,0.49373 0.98147,-0.36976 1.07854,-0.29915 0.2729,0.19853 0.0163,0.99823 0.35027,0.94992 0.34034,-0.0492 0.0963,-0.68098 0.14438,-1.02146 0.72411,2.68996 0.13265,1.0887 0.55441,-1.35955 0.0495,-0.28728 0.24832,-0.53267 0.42611,-0.76369 0.18925,-0.24592 0.5234,-0.92932 0.66386,-0.65262 2.28585,4.50306 0.99257,13.08101 1.57311,-5.76409 0.46306,0.19971 1.12944,0.16687 1.38917,0.59913 0.9272,1.54312 0.27928,4.45503 1.98807,5.02154 1.31103,0.43464 1.02669,-2.56702 1.44703,-3.8827 0.92029,-2.88053 0.94626,-7.20312 3.67802,-6.57908 1.06451,0.24318 1.682,1.39288 2.523,2.08932 6.56836,-3.6845 -2.95212,2.2718 4.76906,-6.28238 0.63379,-0.70216 2.09672,-0.0263 2.74646,-0.71371 1.25683,-1.32969 1.3503,-3.47312 2.53159,-4.87035 1.34502,-1.59088 4.23989,-1.21823 5.56368,-2.84697 0.99268,0.72547 1.75283,2.27939 2.97804,2.17642 0.53521,-0.045 4.71371,-5.18196 5.11623,-5.37497 0.76248,-0.3656 2.15933,1.09202 2.51585,0.32525 2.07355,-4.45964 0.61039,-10.07372 3.57872,-14.31379 4.38311,7.60733 0.23635,2.46976 3.49519,-1.14349 0.52139,-0.57809 0.97967,1.25523 1.64745,1.65537 0.38442,0.23035 1.22121,0.56615 1.33782,0.13344 1.51143,-5.6089 -1.00328,-9.65078 1.74966,-3.98074 0.26331,-0.6073 0.23384,-1.46287 0.78993,-1.8219 0.35501,-0.22922 0.87353,0.24584 1.12412,0.58611 0.6487,0.88085 0.48212,2.46241 1.46882,2.93478 0.61193,0.29296 1.07555,-1.00992 1.1414,-1.68516 0.46923,-4.81107 -0.90595,-9.85143 0.43668,-14.49514 0.51327,-1.77522 1.53017,3.36423 2.29525,5.04634 0.74596,0.30684 1.43373,0.9833 2.23788,0.92051 1.05881,-0.0827 4.49944,-2.79264 4.98033,-3.34488 1.05553,-1.21217 1.43046,-3.00939 2.7,-3.99517 3.0621,-2.37771 4.7796,1.47675 6.27369,3.11169 3.23418,-4.22597 3.44905,-5.92073 8.96247,-6.0799 0.89665,-0.0259 1.79563,0.003 2.69015,0.0703 0.87031,0.065 1.83667,0.7517 2.59795,0.32496 1.16906,-0.65532 1.64996,-2.11239 2.47494,-3.16858 0.38923,-0.57794 5.09503,-7.7081 5.66255,-7.95071 1.23421,-0.52764 2.72411,0.39688 3.87901,1.08089 1.78508,1.05725 2.68486,4.26772 4.74554,4.02718 5.10832,-0.59628 5.4569,-10.8648 10.88732,-10.93255 2.20323,-1.4025 4.40647,-2.805 6.6097,-4.2075 2.45175,-0.18935 5.14238,0.50442 7.35523,-0.56805 2.95638,-1.43281 4.66298,-4.6774 7.3546,-6.5611 2.32659,-1.62823 5.03428,-2.63016 7.57921,-3.89012 2.44194,-1.20898 5.23905,-1.83004 7.37977,-3.51587 2.60024,-2.04771 4.37003,-4.97195 6.55505,-7.45793 1.99036,-1.61011 4.15012,-3.03086 5.97108,-4.83034 1.85781,-1.83591 2.88175,-4.51182 5.01197,-6.02318 0.83496,-0.5924 6.62669,-0.31916 7.65132,-1.64761 0.71055,-0.92124 2.56849,-7.9664 3.06435,-9.76632 0,0 2.20118,29.98357 2.20118,29.98357 z"
       inkscape:connector-curvature="0" />
    <path
       style="opacity:1;fill:#000000;fill-opacity:1;stroke:#000000;stroke-width:3;stroke-linejoin:miter;stroke-miterlimit:4;stroke-dasharray:3, 3;stroke-dashoffset:0;stroke-opacity:1"
       id="path4152"
       d="m 177.0634,274.05759 c 2.02279,-4.62053 -0.3968,-0.0337 1.599,3.12339 0.71941,1.13802 2.18897,-4.18188 3.43644,-0.803 9.23332,25.00929 -3.86078,-2.1671 3.87978,13.27943 1.04813,-1.25838 1.50738,-3.72719 3.14439,-3.77515 1.51281,-0.0443 1.98027,2.30739 2.76408,3.60207 1.05452,1.74183 1.34907,3.96651 2.72606,5.46646 0.71955,0.78378 2.04133,0.60436 3.07576,0.85339 5.37214,1.29332 2.47507,-0.84258 5.43291,7.15419 6.37469,-2.35492 0.62895,-1.27805 4.54268,8.22328 0.27295,0.66262 1.46467,-0.0563 2.14272,0.17565 0.64759,0.22156 1.30338,1.6943 1.70686,1.14142 3.1483,-4.31407 1.05383,-10.27311 2.90669,-2.34928 1.85492,0.38664 0.0476,3.50986 1.36745,3.86867 0.84739,0.23037 0.27225,-1.79071 0.7559,-2.52366 0.16363,-0.24797 0.16463,1.0165 0.37625,0.80797 0.97124,-0.9571 0.33434,-6.95368 0.6455,2.38753 0.0783,0.91041 -0.6427,2.47697 0.23499,2.73122 0.77539,0.22462 0.49398,-5.53736 1.388,-4.49231 0.79056,0.9241 0.224,2.4433 0.60715,3.59749 0.12537,0.37765 0.67965,0.47245 0.86143,0.82641 0.40884,0.79608 0.57852,1.69378 0.86778,2.54067 3.11178,-7.62787 -0.30663,-1.57021 2.32334,-1.23762 0.67976,0.086 0.67903,-1.65554 1.35531,-1.54544 0.75549,0.123 0.57453,1.51287 1.19529,1.96069 0.37193,0.26832 0.91434,-0.0726 1.37151,-0.10896 0.2678,2.63237 0.53559,5.26473 0.80338,7.8971 -2.68875,7.5456 2.22122,-9.03012 3.14926,-6.73283 0.89433,2.21383 -0.39226,5.05544 0.81278,7.11669 0.58772,1.0053 0.38085,-3.45841 1.50454,-3.15288 1.26754,0.34464 0.44005,2.61534 0.95806,3.82245 0.19785,0.46106 0.74385,0.67347 1.11577,1.01021 0.43887,-0.72087 0.48255,-2.29147 1.31661,-2.16261 0.87839,0.13571 0.5799,1.6811 0.9095,2.50654 2.34683,5.87725 -0.44617,0.25556 1.9395,2.18153 2.09876,1.69435 1.46507,7.71247 1.52208,8.41752 1.93777,0.34195 1.00809,-6.68154 2.67586,-5.50581 1.38814,0.9786 -0.27896,3.70078 0.76974,5.03675 1.97115,2.51113 0.54882,-6.50366 2.38321,-0.99427 0.46111,1.3849 0.55539,2.86597 0.83308,4.29896 0.55791,-2.33113 0.74486,-9.20305 1.67373,-6.99338 1.49925,3.5665 -0.64656,7.84334 0.26419,11.60342 0.36781,1.51854 -0.0758,-4.69117 1.46811,-4.45148 1.59876,0.24819 -0.41839,5.91608 0.74874,4.79563 3.22235,-3.09347 0.45293,-11.85381 2.50042,-3.81097 1.74733,12.72722 -0.60679,1.00175 2.11302,0.65585 1.37215,-0.1745 0.42529,2.73627 0.74195,4.08274 0.20474,0.87061 0.16933,3.16956 0.81908,2.55499 2.30964,-2.18461 0.84133,-15.63294 1.65994,4.14506 4.11345,-15.08958 -1.1673,1.71037 1.90696,-0.81872 1.35024,-1.1108 -0.5172,-4.59948 1.15288,-5.11703 1.47055,-0.45573 -0.0509,3.1742 0.56889,4.58345 0.20969,0.47675 0.58588,-0.86127 0.87883,-1.2919 0.19947,1.87104 0.39895,3.74207 0.59843,5.61311 2.68356,-13.7191 -0.0272,-3.56582 1.89621,-1.63753 0.2996,0.30037 1.97062,-5.59549 2.31107,-4.77944 0.83978,2.01292 0.29672,4.35628 0.61035,6.51468 0.16661,1.14657 0.55124,2.2507 0.82686,3.37606 1.89063,-8.44701 1.02102,-10.42264 2.6417,-4.642 0.30127,1.07457 0.34596,2.24702 0.86741,3.23372 0.52735,0.99787 1.92625,-0.0692 2.20932,1.35864 0.49071,2.47535 0.37809,5.03286 0.56714,7.5493 4.1215,-11.07954 -0.6698,-0.53377 2.36355,-0.61252 1.24408,-0.0323 0.64795,-2.46038 1.373,-3.47185 0.21275,-0.29679 0.95781,-0.30963 1.09512,0.0287 0.58269,1.43594 0.39893,3.08072 0.77653,4.58368 0.19722,0.78495 0.6252,1.49308 0.93779,2.23962 2.44386,-6.14226 0.30845,-2.55046 2.1245,0.49154 0.20734,0.3473 0.65907,-0.52913 1.0584,-0.59352 0.34056,-0.0549 0.65643,0.2535 1.00129,0.26144 0.35298,0.008 0.9152,-0.54578 1.03729,-0.21448 0.57973,1.57306 0.47881,3.31861 0.71822,4.97792 0.34799,-1.03672 1.09923,3.50574 1.87771,2.72443 0.79566,-0.79857 0.13766,-2.7193 1.16953,-3.17324 0.74674,-0.3285 0.079,1.85757 0.74268,2.33201 0.39953,0.28562 0.65228,-0.7344 0.97842,-1.10161 0.20444,0.88931 0.40888,1.77862 0.61332,2.66794 -0.53206,1.37147 1.5481,-3.13587 1.78416,-2.2171 0.43,1.67358 -0.44728,3.61318 0.29055,5.17567 0.37021,0.784 0.62458,-3.16004 1.02452,-2.39078 3.67557,7.06976 -1.76041,3.95118 1.20035,5.48395 3.28201,-7.50078 -1.60408,2.54152 1.60158,3.83811 1.8379,0.74337 -0.38404,-6.18855 1.54772,-5.74272 2.03414,0.46945 0.34283,4.16196 0.58657,6.23529 0.20139,1.71315 -0.0593,3.59625 0.7484,5.12044 0.282,0.53218 0.86659,-0.83665 1.29988,-1.25498 -0.92393,-0.33585 2.19479,-2.45259 2.57362,-1.52938 0.65462,1.5953 0.06,3.5743 0.86196,5.10083 0.2525,0.48062 0.98558,-0.53373 1.30799,-0.97055 0.59058,-0.80018 0.48919,-3.12176 1.36603,-2.65248 1.16428,0.6231 0.59373,2.57346 0.8906,3.86019 0.96088,0.94171 1.77313,-2.57437 2.36621,-1.78435 0.79828,1.06335 0.45455,2.62745 0.84564,3.89828 0.31782,0.64922 0.63564,1.29843 0.95345,1.94765 0.36086,-0.0855 0.88416,-0.56987 1.08257,-0.25656 0.60245,0.95133 0.55256,2.18325 0.82885,3.27488 -1.44483,-1.34093 2.90034,-3.29652 3.2665,-2.05601 0.47306,1.60265 -0.72141,3.90716 0.55817,4.98186 0.94668,0.7951 0.61184,-2.42032 1.19169,-3.51218 0.15567,-0.29313 0.59991,-0.28416 0.89987,-0.42624 -9.32004,7.52092 0.42466,7.17863 1.22518,5.48491 0.5668,-1.19924 0.32156,-2.79778 1.19572,-3.79542 0.39076,-0.44597 0.49422,1.0795 0.69526,1.63732 0.26434,0.73347 0.58079,1.46138 0.69923,2.23198 0.28768,1.8717 0.34228,3.77186 0.51341,5.6578 -0.15686,1.14592 1.63741,-3.23062 2.13238,-2.30763 0.6663,1.24247 0.0471,2.95142 0.77714,4.15756 0.26343,0.43525 0.80687,-0.64332 1.09688,-1.06133 1.86481,-2.68789 0.14096,-1.99252 2.31699,-2.49308 -0.87645,6.40653 2.0411,1.20244 3.14708,4.92113 0.5082,1.70871 -0.33465,4.0022 0.92036,5.26828 0.77656,0.78341 0.84977,-2.03594 1.27465,-3.05391 0.28784,1.7381 0.57568,3.47619 0.86352,5.21428 0.49354,-2.56718 0.22842,-5.40677 1.48063,-7.70154 0.54865,-1.00545 0.70307,2.18655 0.91451,3.31226 0.34144,1.81785 -0.49083,4.11909 0.74053,5.49928 0.79119,0.88682 0.51916,-2.36963 1.15695,-3.37246 0.17257,-0.27135 0.84615,-0.26161 0.96399,0.0376 0.5072,1.28776 0.44338,2.73235 0.66506,4.09852 0.35438,-1.40427 0.37559,-2.93811 1.06313,-4.21281 0.18088,-0.33537 0.45234,0.62095 0.73851,0.87254 0.229,0.20133 0.64817,0.19588 0.78608,0.46783 0.39184,0.77267 0.21177,3.20101 0.71791,2.4979 2.10118,-2.91887 0.47913,-12.27162 1.82567,1.3653 2.52421,-14.76219 0.77358,-9.66345 2.30736,-2.64768 0.14402,0.65874 0.74174,1.13067 1.03702,1.73688 1.44211,2.96068 0.0392,2.43871 2.24969,2.70704 0,0 -1.25574,22.97104 -1.25574,22.97104 v 0 c -0.49486,1.35698 -0.78019,2.80993 -1.48457,4.07093 -0.24316,0.4353 -0.81958,0.56974 -1.24911,0.82295 -0.39566,0.23325 -1.09911,1.07669 -1.22313,0.63445 -1.74107,-6.20818 0.77993,-10.32117 -1.84414,-4.93598 -0.282,-0.43147 -0.41665,-1.00919 -0.846,-1.29441 -0.24376,-0.16192 -0.75587,0.43099 -0.86345,0.15883 -0.46796,-1.18396 0.10935,-4.85576 -0.56666,-3.77699 -10.19499,16.26917 6.43035,1.9862 -2.55551,2.20681 -0.18718,-2.26961 0.1004,-4.62983 -0.56154,-6.80881 -0.18516,-0.60949 -0.74169,1.04376 -1.015,1.61914 -0.47507,1.00012 -0.77519,2.07561 -1.22141,3.08893 -0.35621,0.80892 -0.38838,2.75842 -1.18368,2.37276 -4.13782,-2.00653 1.31951,-4.5772 -1.974,-2.7415 -2.08632,-20.44969 0.74838,-1.89948 -2.0271,-2.89924 -1.55979,-0.56184 -0.0125,-3.47568 -0.86433,-4.898 -0.24806,-0.41418 -1.9326,3.12473 -2.4057,2.67367 -0.84552,-0.80612 -0.68718,-2.23309 -1.03077,-3.34964 -0.49543,2.15542 0.72275,6.57302 -1.4863,6.46627 -3.53366,-0.17077 1.13356,-8.52881 -1.81111,-10.00702 -0.78332,-0.39323 -0.39442,2.33876 -1.27014,2.30233 -1.18434,-0.0493 -0.16588,-3.18942 -1.96366,-2.96478 -1.4689,0.28579 -1.30155,-0.002 -2.17158,1.90276 -0.52976,1.15975 -0.53704,4.63196 -1.28813,3.60165 -1.24901,-1.71332 1.08353,-20.42047 -1.97616,-7.64928 -0.19021,-1.06432 -0.38041,-2.12864 -0.57062,-3.19296 -0.3664,0.92724 -0.76789,3.72208 -1.0992,2.78172 -0.74393,-2.11152 1.30302,-5.13204 -0.28488,-6.71019 -1.2561,-1.24839 0.0943,6.27613 -1.27809,5.15683 -2.52913,-2.06275 1.37027,-12.18215 -1.73435,-2.84711 -0.33424,0.0516 -0.9058,0.47876 -1.00272,0.15475 -0.5452,-1.82251 0.68756,-7.02558 -0.64717,-5.67012 -1.88856,1.91787 -0.12662,5.64856 -1.56924,7.92093 -0.7548,1.18894 -0.33899,-2.82252 -0.82939,-4.14267 -0.16998,-0.45758 -0.75149,-0.62834 -1.07779,-0.99138 -0.40003,-0.44507 -0.72881,-0.94937 -1.09321,-1.42405 -0.42981,0.27649 -0.78865,0.93144 -1.28943,0.82948 -1.35187,-0.27525 -1.81891,-3.86575 -2.22369,-4.17659 -0.44442,-0.34129 -1.10488,1.5168 -1.3438,1.00995 -2.14798,-4.55664 0.68663,-8.46172 -2.3177,-2.95388 -0.39739,-0.24635 -1.00136,-0.31219 -1.19216,-0.73903 -0.54962,-1.22961 -0.61711,-2.62226 -0.899,-3.93929 -0.29327,-1.37015 0.001,-2.99076 -0.82632,-4.12153 -0.35391,-0.48364 -0.63909,1.40896 -1.23033,1.31101 -0.62489,-0.10352 -0.60905,-1.11079 -0.91357,-1.66618 -0.33023,-0.0216 -0.66046,-0.0431 -0.99069,-0.0647 -1.89554,-12.22951 1.31264,5.31811 -1.99161,2.06242 -1.73349,-1.70801 -0.071,-4.86663 -0.10649,-7.29994 -0.36688,1.25194 -0.007,4.46676 -1.10065,3.75582 -1.56914,-1.01984 0.89947,-4.29766 -0.8874,-5.54374 -0.30199,0.84701 -0.47003,1.75454 -0.90597,2.54104 -0.14234,0.25678 -0.66857,0.73527 -0.75444,0.45452 -0.4515,-1.47634 -0.0422,-3.13297 -0.51425,-4.60287 -0.0942,-0.29329 -0.72896,0.42848 -0.90702,0.1771 -0.95302,-1.34548 -0.40802,-3.41005 -1.5824,-4.68649 -1.08351,-1.33756 -0.50005,-1.30005 -1.97611,-0.99473 -0.36023,0.0745 -0.79548,0.0272 -1.06928,0.27287 -0.52896,0.47458 -0.77005,2.32886 -1.19939,1.76257 -2.059,-2.71579 0.90201,-11.42735 -2.2892,2.01405 -0.2584,-1.7203 -0.0394,-3.58456 -0.77518,-5.16088 -0.2131,-0.45653 -0.73498,1.06213 -1.21271,0.90212 -0.71925,-0.24091 -2.05062,-4.23596 -2.06744,-4.31425 -0.39813,-1.8532 0.42598,-4.16636 -0.77416,-5.63351 -0.69004,-0.84357 -0.95217,1.96073 -1.42825,2.9411 -1.96041,-9.55385 0.44455,-1.95154 -2.30874,-0.91991 -0.79351,0.29732 -0.36152,-1.76695 -0.98087,-2.34527 -0.29819,-0.27844 -0.89776,0.0329 -1.17903,0.32844 -2.92077,3.06874 -1.03147,10.85311 -1.51472,-7.60917 -0.48071,2.06921 0.0653,4.71087 -1.44215,6.20761 -2.21375,2.19801 1.29145,-11.18959 -1.17871,-9.28428 -1.74245,1.344 0.19563,4.79719 -1.21072,6.48971 -2.9703,3.57472 1.97222,-15.19248 -1.58397,-0.0487 -0.23056,-1.01677 -0.41542,-2.045 -0.69166,-3.05032 -1.80758,-6.57829 0.46201,1.91333 -1.89328,1.4117 -2.70962,-0.57709 1.51009,-5.51691 -2.80984,-4.58444 -0.38379,0.25123 -0.81315,0.44381 -1.15135,0.7537 -0.46497,0.42604 -0.79722,1.8868 -1.2352,1.43306 -0.8444,-0.87476 -0.56838,-2.36473 -0.81363,-3.55557 -0.27254,-1.32336 0.41638,-3.28557 -0.73939,-3.9854 -2.75777,-1.66986 0.0849,15.37529 -1.90178,-2.93885 -1.93545,-7.38844 0.53474,-0.0391 -2.40742,3.08288 -0.8711,0.92432 -0.16993,-2.62711 -0.8125,-3.72269 -0.20351,-0.34698 -0.98965,0.76286 -1.14186,0.39051 -0.639,-1.56324 0.93921,-4.91539 -0.74688,-5.01104 -1.70039,-0.0965 -1.00174,3.25562 -1.50261,4.88343 -4.08275,2.93128 0.54289,0.12255 -1.64926,-8.74055 -0.22155,-0.89578 -0.6364,1.82423 -1.3382,2.42338 -1.4547,1.24192 -1.8728,-4.18825 -3.35109,-1.43614 -0.48198,1.32626 -0.61813,5.1216 -1.44595,3.9788 -1.33081,-1.83718 0.27557,-4.681 -0.58358,-6.78056 -0.32481,-0.79375 -1.08215,3.06886 -1.27703,2.23365 -0.68129,-2.91984 0.50746,-6.10217 -0.2994,-8.98984 -0.31077,-1.11217 -0.87816,2.13609 -1.31723,3.20413 -0.17868,-2.46755 -0.35737,-4.93511 -0.53605,-7.40266 -0.49027,1.40245 -0.95176,2.8153 -1.4708,4.20736 -0.4583,1.22915 -0.54847,4.59726 -1.46053,3.6544 -1.403,-1.4504 1.04567,-5.20235 -0.80809,-5.99964 -1.59617,-0.6865 -0.17184,4.00405 -1.62812,4.95184 -1.27079,0.82707 -0.0955,-4.59566 -2.3806,-3.87601 -4.56646,2.31386 1.76741,-0.35458 -2.102,-8.06288 -0.68223,-1.35908 -0.12245,3.74412 -1.54015,4.29427 -1.07412,0.41681 -0.34215,-2.36233 -0.99888,-3.309 -0.22265,-0.32096 -0.76906,0.13749 -1.15359,0.20624 -0.3222,-0.55265 -0.6444,-1.1053 -0.9666,-1.65795 -2.20751,-2.61973 0.72688,0.29614 -1.87124,2.7799 -0.56404,0.53922 -0.0629,-2.82748 -0.60106,-2.26246 -2.95297,3.10024 0.65321,5.96342 -1.38178,1.4082 -0.0987,-0.22103 -0.43933,-0.20351 -0.659,-0.30526 -0.0966,-1.2556 -0.19323,-2.51121 -0.28984,-3.76682 -0.23143,0.63885 -0.50396,2.5688 -0.69429,1.91653 -0.46202,-1.58331 -0.0835,-3.29846 -0.18926,-4.9444 -0.0724,-1.12666 0.1032,-4.40554 -0.34494,-3.36932 -0.96264,2.2259 -0.41157,4.90056 -1.29417,7.15939 -0.24836,0.63562 -0.50704,-1.26715 -0.76055,-1.90072 -0.357,-0.47168 -0.71347,-0.94377 -1.071,-1.41505 -0.44529,-0.58694 -1.12974,-1.05276 -1.33748,-1.7596 -0.66582,-2.26558 0.45671,-5.32393 -1.22999,-6.97656 -0.99414,-0.97407 -1.63852,4.56609 -2.41146,3.40864 -5.57442,-8.34743 2.24139,-12.33234 -4.63672,-7.69853 -0.87478,-1.28431 -1.82306,-2.52152 -2.62432,-3.85293 -3.07662,-5.11223 -1.39604,-4.34486 -5.56424,-7.49686 -0.93782,-0.70917 -1.96576,-2.46803 -2.98421,-1.8805 -1.8925,1.09174 -2.04762,7.27166 -3.43389,5.58297 -2.58905,-3.15386 -1.27272,-8.06102 -1.90909,-12.09153 -6.26138,7.24221 0.64509,1.04896 -4.52491,-3.60741 -0.998,-0.89885 -0.87354,3.9664 -2.10688,3.4346 -5.52169,-2.38092 4.68263,-13.08278 -2.73749,1.96813 -0.38486,0.78066 -0.32042,-1.71098 -0.48064,-2.56648 0,0 1.91119,-28.28171 1.91119,-28.28171 z"
       inkscape:connector-curvature="0" />
    <path
       style="opacity:1;fill:#000000;fill-opacity:1;stroke:#000000;stroke-width:3;stroke-linejoin:miter;stroke-miterlimit:4;stroke-dasharray:3, 3;stroke-dashoffset:0;stroke-opacity:1"
       id="path4154"
       d="m 359.75099,482.44806 c -0.3434,3.54754 -0.89818,7.08096 -1.03021,10.64264 -0.013,0.34981 0.44182,0.5489 0.60385,0.8592 0.29674,0.56829 0.61765,1.14047 0.766,1.76417 0.34777,1.46221 0.56191,2.9569 0.71254,4.45233 1.13886,11.30616 -0.39441,3.60892 1.44711,11.6244 0.37893,0.92198 0.27413,2.26651 1.1368,2.76592 0.5711,0.33062 1.33949,-1.80808 1.57954,-1.1934 0.77839,1.99327 0.15786,4.28431 0.45504,6.40343 0.12612,0.89931 0.70703,1.6993 0.80784,2.6018 0.22342,2.00006 -1.57625,5.0127 0.15699,6.03546 1.51601,0.89458 0.98738,-3.37924 1.48108,-5.06886 0.002,1.37995 -0.0585,2.76142 0.006,4.13986 0.0179,0.38221 0.16054,0.74823 0.24081,1.12235 0.27771,10.50293 0.90725,21.00245 0.83313,31.50879 -0.007,1.03824 -0.26984,-2.23578 -1.03469,-2.93792 -0.37834,-0.34733 -0.18089,1.16795 -0.63774,1.40259 -0.35157,0.18057 -0.70697,-0.35358 -1.06046,-0.53038 -0.33078,-0.065 -0.74093,-0.41956 -0.99235,-0.19499 -2.25895,2.0177 1.30021,8.53686 -1.3472,8.99316 -2.33,0.40159 -0.17173,-4.72573 -0.22779,-7.08942 -0.0271,-1.14176 -0.27148,-1.07387 0.37991,-0.94058 0.36262,-1.07375 -0.0397,-3.96278 0.56447,-0.34046 -0.018,-7.93459 -0.0117,-15.86927 -0.054,-23.80376 -0.003,-0.57615 -0.63375,1.81117 -0.0637,1.72729 0.62082,-0.0914 0.36888,-1.19956 0.55332,-1.79934 -0.0755,1.3232 -0.21821,2.64427 -0.22648,3.96959 -0.8692,0.96101 0.49711,1.32496 0.52403,2.02009 0.0514,1.3281 -0.18959,2.65573 -0.15329,3.98433 0.008,0.29977 0.19031,0.56877 0.28546,0.85315 -0.11655,1.66672 -0.2331,3.33345 -0.34965,5.00017 1.01814,-3.59142 0.65042,-3.17629 0.723,-0.53066 0.25646,9.34805 0.96495,18.6918 0.83036,28.04239 -0.0604,4.19611 -1.37144,-9.98803 -1.32399,-3.48388 0.0112,1.5412 0.13975,3.07931 0.20962,4.61896 -3.36128,-13.01763 2.65388,9.54537 -0.27607,2.96857 -1.07621,-2.41574 -0.72032,-5.24447 -1.26553,-7.83228 -0.0536,-0.25433 1.07225,9.8054 1.10661,8.66941 0.27276,-9.01723 -0.009,-18.04271 -0.0136,-27.06407 0.10805,-0.45563 0.34235,-1.83482 0.32415,-1.3669 -0.0544,1.397 -0.36746,2.77523 -0.43329,4.17175 -0.006,0.11927 0.17458,0.38894 0.22343,0.27999 0.28263,-0.63036 0.26776,-2.63064 0.54725,-1.99889 0.3729,0.84292 -0.21166,1.83533 -0.21184,2.75705 -0.002,10.43942 0.13692,20.87839 0.20538,31.31759 -0.0225,0.38163 -0.045,0.76327 -0.0675,1.14491 -0.309,-1.47049 -0.74358,-5.90283 -0.927,-4.41146 -0.27961,2.27338 0.54819,4.55366 0.62797,6.84278 0.006,0.18086 -0.2691,0.5379 -0.37586,0.39177 -1.17087,-1.60278 -0.11666,-2.43886 -1.07088,-1.47268 0.0284,1.2355 0.26727,2.48415 0.0853,3.70651 -0.0355,0.23844 -0.38065,-0.29591 -0.57097,-0.44387 -0.23149,-0.5004 -0.68747,-2.05251 -0.69447,-1.50121 -0.036,2.83377 0.94253,5.66644 0.60585,8.48036 -0.7352,6.14461 -1.81575,-19.17272 -0.78347,0.19104 -0.63175,2.36201 -1.42105,-1.83122 -1.46508,-1.72088 -0.51397,1.28806 1.69548,13.07549 -0.48505,4.51167 0.0756,2.25248 0.15865,3.22563 0.0889,5.27335 -0.0232,0.68153 0.176,2.66038 -0.11289,2.04267 -0.62513,-1.33665 -0.12047,-5.54087 -0.95353,-4.32291 -0.78332,1.14524 2.07952,13.20661 -0.81315,-0.25291 0.0519,1.49828 0.43645,3.02217 0.15575,4.49483 -0.12335,0.64715 -0.61012,-2.52104 -0.65722,-1.86393 -0.13809,1.92649 1.67838,7.20866 0.37637,5.78206 -1.57029,-1.72054 0.32312,-8.46994 -1.35596,-6.85538 -2.46524,2.37051 2.19596,10.7294 0.001,6.6392 -3.20276,-0.92551 0.47588,0.002 0.30151,8.4706 -0.0199,0.96773 -0.11956,-3.45112 -0.82186,-2.78505 -0.85116,0.80725 0.19124,2.35459 0.0481,3.5189 -0.0201,0.16383 -0.3049,-0.12659 -0.45735,-0.18988 0.052,1.28816 0.10404,2.57633 0.15606,3.8645 -0.41263,1.3346 -1.40474,-1.85416 -1.59764,-1.42977 -0.30194,0.66427 -0.16228,1.45899 -0.10567,2.18647 0.69404,8.91812 1.99838,12.86926 0.007,5.68938 -1.01651,1.65575 0.676,3.80017 -0.11391,5.42866 -0.45504,0.93812 -0.84333,-4.02608 -0.92864,-2.98693 -0.19411,2.36457 0.48945,4.72262 0.59157,7.09294 0.0249,0.57825 -0.14117,1.14893 -0.21176,1.7234 0.12084,2.19157 0.24168,4.38314 0.36252,6.57471 -0.3102,-0.54552 -0.33181,-1.82436 -0.93059,-1.63655 -0.66683,0.20915 -0.26184,1.3731 -0.40821,2.05646 -0.85483,3.99094 -0.40042,0.59144 -0.66187,6.66269 -0.0614,1.42557 0.16178,2.89692 -0.2055,4.27573 -0.0798,0.29963 -0.54202,-0.30134 -0.81303,-0.45201 -0.0645,1.4257 1.22301,4.10368 -0.19357,4.2771 -1.41844,0.17365 -0.94487,-5.49566 -1.25229,-4.10009 -4.04323,18.35475 3.00795,6.74224 -0.54936,4.8243 -1.21807,-0.65672 0.94534,6.31772 -0.61088,0.78485 0.19017,2.40273 0.44888,4.80101 0.5705,7.20818 0.008,0.15957 -0.12752,0.5921 -0.18393,0.44262 -0.21212,-0.56213 -0.22736,-1.18023 -0.3185,-1.7741 -0.20077,-1.30819 -0.34319,-2.62596 -0.44396,-3.94562 -0.0514,-0.67312 0.18686,1.33717 0.28029,2.00576 0,0 -4.53276,-29.35971 -4.53276,-29.35971 v 0 c 2.05477,10.98768 0.56691,4.14569 0.72999,1.57565 0.0288,-0.45395 0.28887,0.86263 0.43331,1.29394 -0.12628,-1.65074 -0.25256,-3.30148 -0.37883,-4.95222 0.008,-0.63818 0.29784,1.24174 0.41618,1.8689 0.26085,1.3824 0.48075,2.77222 0.72112,4.15834 0.18075,0.5815 0.56318,2.35312 0.54225,1.74452 -0.11272,-3.27744 -0.61391,-6.53103 -0.81945,-9.80396 -0.0892,-1.4206 -0.75002,-5.5171 -0.0644,-4.26971 1.10583,2.01186 0.6187,4.58817 1.42161,6.73893 0.55896,1.49731 0.32877,-7.62323 0.67102,-4.74753 0.52768,2.08521 0.30097,7.98272 1.58303,6.25562 1.57705,-2.12447 -0.55744,-5.29334 -0.33993,-7.93022 0.0383,-0.46394 0.83301,1.52208 0.90645,1.06239 0.31222,-1.95435 -0.0822,-3.95743 -0.12785,-5.93605 -0.0421,-1.82712 -0.83179,-3.79141 -0.13542,-5.48116 0.42427,-1.02949 0.72898,2.1043 1.09347,3.15645 0.35846,-6.79358 -0.0262,2.6854 -0.33035,-9.13658 -0.0356,-1.38283 0.93672,-2.70038 0.39217,-4.1313 -0.0627,-1.95247 -1.0983,-4.02583 -0.39232,-5.84726 0.51132,-1.31919 0.71089,2.73889 1.06633,4.10833 0.16307,0.14064 0.48041,0.6371 0.48922,0.42193 0.067,-1.63573 -0.26161,-3.26527 -0.30587,-4.90177 -0.0215,-0.79372 -0.0343,-1.59855 0.10895,-2.37954 0.036,-0.19611 0.41328,-0.23834 0.40773,-0.43764 -0.0703,-2.52612 -0.48522,-5.03213 -0.63027,-7.55507 -0.059,-1.02692 0.0124,-2.05719 0.0185,-3.08578 0.48591,2.24185 0.77198,4.53656 1.45773,6.72557 0.0947,0.30225 0.38118,-0.55604 0.37579,-0.87272 -0.0426,-2.5025 -0.34555,-4.99378 -0.51832,-7.49067 0.15301,-0.1132 0.43557,-0.15071 0.45904,-0.33959 0.13934,-1.12162 -0.17896,-2.27545 0.004,-3.39072 0.0313,-0.19065 0.33784,0.18756 0.50677,0.28134 2.67791,0.93248 -1.22667,-6.36193 0.39239,-6.94006 1.04431,-0.3729 0.51718,2.15838 0.84819,3.21671 0.84653,2.70668 7.44679,13.3693 -0.3089,-8.50232 0.36675,1.90264 0.73349,3.80528 1.10023,5.70792 -0.0471,-1.25574 -0.69635,-4.89457 -0.14119,-3.76722 3.3112,6.72397 -1.0541,10.53213 0.28555,-2.84308 0.19322,-1.92913 0.76174,3.802 1.14261,5.703 -0.31938,-3.3236 -0.63876,-6.6472 -0.95815,-9.97081 0.36091,1.78046 0.65705,3.57528 1.08271,5.34138 0.11855,0.49184 0.50832,1.9207 0.546,1.41618 0.12562,-1.68165 -0.24246,-3.36553 -0.27445,-5.05157 -0.003,-0.1839 -0.0233,-3.48412 0.55881,-2.14839 0.37307,0.85603 0.50608,1.79771 0.75912,2.69656 -1.24154,-21.37459 -0.0455,3.38424 0.71477,-5.08969 0.0727,-0.81016 0.1202,-1.62362 0.12543,-2.43701 0.008,-1.19632 -0.75601,-4.57959 -0.0867,-3.58798 0.96808,1.43428 0.7271,3.38359 1.09065,5.07539 0.39874,-4.50333 0.20969,-1.15536 -0.65724,-10.03843 0.0452,-1.5318 0.43722,3.05035 0.92285,4.50383 0.20861,0.62437 -0.24388,-1.33647 -0.0774,-1.97336 0.0841,-0.3216 0.2599,1.25436 0.34906,0.93414 0.16239,-0.58319 -0.0695,-1.20874 -0.10431,-1.81312 0.0411,9.7451 1.46675,16.98975 -0.53248,25.51592 -0.0374,0.15963 -0.0572,-0.32705 -0.0408,-0.49019 0.17116,-1.69857 0.49862,-3.38194 0.60269,-5.08595 0.006,-0.10476 -0.19883,0.0673 -0.29824,0.10101 -0.17304,0.53355 -0.34607,1.06709 -0.5191,1.60063 -0.0576,-10.63334 -0.11527,-21.26668 -0.17291,-31.90002 0.22608,0.95216 -0.12749,3.41191 0.67824,2.85647 0.88036,-0.60689 -0.96478,-3.92443 -0.17549,-3.20304 1.33948,1.22425 0.65938,7.72389 0.8251,0.94342 0.0114,-0.46812 0.0876,-0.9324 0.13145,-1.3986 -1.25476,-13.07748 -0.58771,-4.24364 0.58317,0.19703 0.2622,0.99441 -0.25204,-4.10378 -0.24564,-3.0754 0.0443,7.11651 0.16606,14.23289 0.35932,21.3469 0.0111,0.40678 0.69131,-8.41086 -0.61981,1.05172 -0.0269,-0.61307 -0.0539,-1.22615 -0.0808,-1.83922 -0.16688,0.26597 -0.41857,1.10098 -0.50066,0.79791 -0.23629,-0.87233 -0.0175,-1.80747 -0.0176,-2.71123 -6.5e-4,-4.373 1.56964,-18.33067 -1.0653,-1.22846 0.33433,-3.08097 0.97891,-6.14395 1.00297,-9.24292 0.0111,-1.43583 -0.92516,5.6338 -0.9638,4.19844 -0.25882,-9.61659 0.12651,-19.24014 0.30008,-28.85865 0.005,-0.27371 0.0379,-0.97711 0.2349,-0.78697 0.44439,0.42901 0.10884,1.80387 0.71902,1.70787 0.6514,-0.10248 0.35568,-1.26995 0.53352,-1.90493 1.23026,-8.08877 -0.0409,-4.30585 1.43525,-2.1848 0.12436,0.17869 0.45669,-0.19856 0.50835,-0.41004 0.22358,-0.91531 0.4817,-6.92282 0.3673,1.02803 -2.48267,-20.68673 -0.40019,-3.6689 0.0578,1.65954 0.15397,1.79137 -0.72369,-7.14658 -0.69582,-5.34883 0.12295,7.93011 0.70978,15.84653 0.98148,23.77294 0.005,0.1536 -0.12077,-0.28268 -0.18115,-0.42402 0.043,-1.42979 0.0859,-2.85958 0.12892,-4.28937 -1.74272,-2.24726 0.29619,0.68346 -0.92139,-5.39696 -0.11939,-0.59627 -0.86468,-0.96696 -0.9257,-1.57199 -0.29496,-2.92421 0.5704,-5.96001 -0.12212,-8.8163 -0.18317,-0.7555 -1.07017,1.12784 -1.60525,1.69177 -0.21256,-2.11709 -0.42513,-4.23418 -0.63769,-6.35127 -0.5804,0.7179 -0.82353,2.05301 -1.74119,2.15369 -0.72057,0.0791 -1.08144,-1.11478 -1.16781,-1.83451 -0.35642,-2.9701 0.33914,-6.01878 -0.12917,-8.9733 -0.0759,-0.47853 -0.70245,0.70667 -1.15284,0.88526 -0.21684,0.086 -0.53117,-0.33591 -0.68179,-0.15778 -0.44741,0.52911 -0.53686,1.27762 -0.80529,1.91644 0,0 4.89164,-36.67883 4.89164,-36.67883 z"
       inkscape:connector-curvature="0" />
    <path
       style="opacity:1;fill:#000000;fill-opacity:1;stroke:#000000;stroke-width:3;stroke-linejoin:miter;stroke-miterlimit:4;stroke-dasharray:3, 3;stroke-dashoffset:0;stroke-opacity:1"
       id="path4156"
       d="m 360.90388,482.91208 c 0.26138,1.35348 -0.10192,5.11642 0.78414,4.06043 1.30972,-1.5609 -0.0649,-4.24535 0.88403,-6.04851 0.34038,-0.64682 0.7673,1.34123 1.41943,1.67134 0.52196,0.26422 1.17711,-0.16297 1.75387,-0.065 5.70315,0.96892 -1.51604,0.75427 4.56523,0.7155 0.41675,-0.46353 4.15261,-4.97519 5.3035,-4.95496 1.17592,0.0207 1.68623,1.74078 2.78031,2.17228 0.81957,0.32323 2.05259,-0.6875 2.64282,-0.0334 4.46815,4.95138 0.86699,12.0113 4.5884,-2.08933 6.87795,-4.91593 -4.55868,2.31836 3.52647,1.69826 1.16195,-0.0891 0.73924,-2.21757 1.25061,-3.26474 3.18668,-6.52558 -2.07101,6.32917 1.84132,1.8034 1.07159,-1.23961 0.428,-3.24909 0.642,-4.87363 -2.03771,-8.91843 0.38751,5.6746 1.1009,4.35729 0.46437,-0.85749 0.0959,-2.04881 0.64767,-2.85288 0.30627,-0.44635 0.16955,1.07087 0.20442,1.61107 0.13884,2.15117 0.0245,4.3113 0.0158,6.46693 0.19124,-0.90498 0.26571,-1.84276 0.57372,-2.71493 0.1214,-0.34378 0.61523,-0.49427 0.68593,-0.85193 0.60013,-3.03568 -0.32848,-6.56038 1.29964,-9.19186 1.0867,-1.75641 -0.21515,6.3097 1.59193,9.63218 0.20152,0.37051 0.81956,0.1997 1.22934,0.29955 4.06021,0.9644 -2.08738,-0.93142 2.49003,6.07344 0.4035,0.61748 1.13755,-0.93934 1.70632,-1.40901 0.41377,2.02446 0.27911,4.24477 1.2413,6.07338 0.27524,0.52307 1.14173,-0.30642 1.71259,-0.45963 0.45822,1.30807 0.91644,2.61613 1.37465,3.9242 0.56289,-0.34007 1.24525,-0.53456 1.68868,-1.02022 0.73376,-0.80363 0.81031,-2.21354 1.75581,-2.75228 0.48836,-0.27826 1.12463,0.46459 1.38402,0.96323 1.44983,2.78721 -0.0468,5.52324 3.49729,3.30498 0.51574,4.05585 0.22033,4.28624 1.43031,7.38964 0.22288,0.57166 0.18215,1.57328 0.78913,1.66298 0.57035,0.0843 0.55623,-1.73497 1.0221,-1.39532 1.84461,1.34482 -1.04864,8.42921 1.97639,-1.9523 7.8515,-12.53585 -2.87587,11.57807 0.69565,10.8896 0.89261,-0.17206 0.54263,-1.7994 1.15674,-2.46965 0.20911,-0.22824 0.5999,0.15312 0.90137,0.22335 0.29469,0.0687 0.78797,-0.0927 0.88693,0.19327 0.42227,1.22019 0.33925,2.56 0.50888,3.84 2.40888,-10.17545 0.93266,-6.19279 1.57192,0.7991 0.0492,0.53812 0.26664,1.87723 0.64203,1.48855 0.79758,-0.82581 -0.0537,-3.0851 1.07928,-3.27078 2.10371,-0.34477 -1.40374,8.09616 1.39792,0.29453 1.82961,1.33862 0.21068,-0.0773 0.62142,4.90868 0.0334,0.40524 0.40855,0.74262 0.40899,1.14924 0.002,2.17685 -2.30905,7.56565 -0.40075,6.51825 1.49104,-0.81838 1.45883,-12.71799 1.33948,-3.83862 0.96664,-0.56192 -1.10801,6.15271 -0.0763,4.89037 0.78414,-0.95942 0.54338,-2.41789 0.81508,-3.62684 -0.50362,8.16517 -1.1826,16.3214 -1.51086,24.49549 -0.25158,6.26445 1.17106,3.21052 -0.0267,5.53268 0.23795,3.40393 1.40468,6.87022 0.71387,10.2118 -0.42343,2.04816 -0.66244,-4.19032 -1.56907,-6.07507 -0.22659,-0.47104 -0.35721,1.83449 -0.67166,1.41697 -0.84555,-1.1227 -0.59828,-5.2417 -1.28557,-4.01572 -2.58077,4.60359 1.68107,9.3672 -1.38558,5.50056 -0.26849,1.20648 0.17116,2.86189 -0.80546,3.61944 -2.68273,2.08096 0.20921,-12.99754 -2.63009,-6.86925 -1.29645,2.79825 -0.15276,6.18472 -0.6418,9.22969 -0.11507,0.71648 -0.41587,1.7897 -1.13854,1.85553 -0.69397,0.0632 -0.87025,-1.08861 -1.30537,-1.63291 -1.94175,-4.48537 -0.77953,-4.0164 -2.53597,-0.8067 -0.34004,0.62139 -0.47141,1.73131 -1.1788,1.76811 -0.69003,0.0359 -0.81885,-2.16716 -1.26661,-1.6409 -3.79278,4.45772 1.13092,4.55499 -2.17241,4.23528 -0.32611,1.34713 -0.36487,2.7985 -0.97833,4.04139 -0.16872,0.34182 -0.98213,0.57017 -1.123,0.21596 -0.77731,-1.95445 -0.6561,-4.16733 -1.25087,-6.18484 -0.19384,-0.65752 -0.68395,-2.30014 -1.08708,-1.7457 -0.88955,1.22341 -0.6138,2.96269 -0.88041,4.45163 -0.32335,1.80579 -0.59284,3.62082 -0.88925,5.43123 -0.38656,-1.80535 0.13755,-4.10229 -1.15966,-5.41605 -0.79443,-0.80456 -0.0339,2.63132 -0.98244,3.24663 -0.614,0.39828 -0.37007,-2.19813 -1.05028,-1.92807 -0.91043,0.36145 -0.59632,3.63253 -1.02775,2.75309 -2.37171,-4.83452 0.42776,-9.95057 -1.99662,-4.59064 -0.32019,-0.79292 -0.5693,-3.13915 -0.96056,-2.37877 -1.00242,1.94806 -0.44666,4.39556 -1.14564,6.4719 -0.11803,0.3506 -0.92361,0.51088 -1.09463,0.18285 -0.68639,-1.31655 -0.29714,-3.05422 -1.06491,-4.32503 -0.22878,-0.37868 -0.75477,0.47756 -1.17379,0.61955 -0.37814,0.12814 -0.78951,0.11968 -1.18427,0.17952 -2.34556,-11.30682 0.10114,-2.669 -2.38789,3.00389 -0.43255,0.98586 -0.54416,-2.12605 -1.14292,-3.02076 -0.22297,-0.33319 -0.81898,-0.14586 -1.13838,-0.38817 -2.4873,-1.88695 0.18129,-0.99483 -2.19211,-1.58893 0,0 -0.0758,-24.54186 -0.0758,-24.54186 v 0 c 2.91479,4.10917 -0.94215,-0.49638 2.31972,-4.03196 0.74156,-0.80378 0.67216,2.09644 1.20473,3.0516 2.54772,4.56926 1.8878,-5.23837 3.71522,1.43505 2.85521,-4.26085 -0.42764,-0.4792 2.42257,1.03391 0.60188,0.31952 0.72163,-1.16633 1.18574,-1.66527 0.31156,-0.33494 0.77603,-0.49382 1.1117,-0.80459 1.78678,-1.65421 0.71959,-2.23776 1.91153,1.69797 3.21836,4.44919 -3.25472,-3.85269 1.75079,-2.40561 1.34502,0.38885 -0.55603,4.13823 0.84387,4.11467 1.40588,-0.0237 -0.24196,-3.19475 0.79691,-4.14229 2.61913,-2.38887 -1.098,11.47771 1.65238,-0.87643 1.98904,6.55404 0.0252,2.23815 1.83182,0.42926 0.37069,-0.37116 1.87053,2.45087 2.11103,2.03761 1.22416,-2.10349 0.22122,-5.04739 1.87454,-7.05657 0.42835,1.09867 0.83938,2.20425 1.28507,3.29601 3.70816,9.08359 -1.8193,-3.43994 2.25431,-2.23142 1.65819,0.49194 0.68371,10.91842 2.50881,3.1078 0.43955,-1.88112 0.60041,-3.81664 0.90062,-5.72496 0.49279,2.10765 0.88673,4.2409 1.47837,6.32297 0.34078,1.19924 0.45464,4.40563 1.31347,3.50192 1.3248,-1.39406 0.4641,-3.81977 0.7898,-5.71514 0.20614,-1.19958 0.11557,-2.55826 0.80433,-3.5618 0.25891,-0.37723 0.65483,0.63918 0.98224,0.95877 0.11046,-2.22371 0.22091,-4.44743 0.33137,-6.67114 3.92465,9.666 -3.23851,-6.9607 1.29922,-2.13122 1.43159,1.52362 0.072,4.39447 1.19691,6.15673 1.24011,1.9428 -0.66401,-7.35084 0.4815,-6.73901 1.25355,-7.59558 -6.69856,-32.25061 0.9059,21.4682 0.007,0.27613 -0.19194,0.51956 -0.25431,0.78864 -0.21958,0.94719 -0.6799,3.82469 -0.59069,2.85649 0.31842,-3.45579 0.85301,-6.88823 1.27952,-10.33235 -0.1842,0.6339 -0.40918,1.25734 -0.55259,1.90169 -0.36995,1.66222 0.44132,4.0842 -0.98626,5.01257 -1.26784,0.82449 1.57735,-3.81504 0.24491,-4.53046 -1.26421,-0.67879 -0.44873,2.83901 -0.80761,4.22833 -0.82047,3.17627 -19.25484,7.57133 0.19653,-9.83963 -0.23977,0.5658 -0.25268,2.09722 -0.71932,1.69739 -0.99824,-0.85529 0.32167,-5.65137 -0.76231,-6.14086 -0.92481,-0.41761 -0.62778,1.93331 -1.03374,2.86329 -0.27681,0.63413 -0.7137,2.44056 -1.0082,1.81445 -0.67036,-1.42518 -0.23635,-3.14105 -0.35452,-4.71158 -0.25443,-0.24931 -0.51815,-0.48949 -0.7633,-0.74793 -0.28489,-0.30034 -0.53338,-1.22037 -0.82589,-0.92745 -0.74827,0.7493 -0.74238,1.98581 -1.18957,2.9457 -0.34186,0.73379 -0.69181,2.77698 -1.17337,2.12628 -2.57399,-3.47802 2.98986,-10.22498 -0.50398,-12.9709 -0.39105,1.13394 0.0239,3.47727 -1.17315,3.40183 -2.31083,-0.14563 1.12719,-5.48199 -0.93749,-7.86094 -0.60745,-0.69992 -0.24625,2.86773 -1.1156,2.54662 -6.62398,-2.44671 2.33648,-3.75744 -1.6976,-3.00517 -2.4358,-15.72613 1.01171,0.28201 -2.1622,-2.03757 -1.21669,-0.88919 0.40967,-3.80136 -0.96603,-4.41653 -1.10859,-0.49573 -0.54774,2.77503 -1.6706,3.2375 -0.74217,0.30568 -0.90127,-1.32843 -1.3519,-1.99264 -0.5532,0.37424 -1.10641,0.74847 -1.65962,1.12271 -4.13757,-3.95683 1.97871,2.3587 -2.85807,-5.70906 -1.16723,-1.94694 -1.95144,0.31462 -3.19157,-0.18508 -1.39259,-0.56113 -2.23327,-4.03134 -2.51462,-4.81184 -2.19444,-3.81292 0.0353,-0.94922 -2.30344,2.45613 -0.28549,0.41567 -0.2838,-1.40416 -0.77679,-1.29815 -0.58825,0.1265 -0.45901,2.14481 -0.77266,1.63134 -0.62113,-1.01684 0.75313,-3.84977 -0.40063,-3.5521 -1.25477,0.32374 -0.44835,2.55265 -0.67253,3.82898 -0.18646,-0.099 -0.53306,-0.0876 -0.55939,-0.29705 -0.26754,-2.12828 -0.081,-16.85266 -0.43156,1.34073 -0.0132,0.68722 0.45141,-7.0421 0.10719,-2.05927 -0.55019,-1.08435 -0.21651,-0.51162 -1.04164,-1.69388 -0.37799,-0.74438 -0.44558,-1.66641 -0.98706,-2.30185 -0.28587,-0.33549 -1.03631,-0.72303 -1.27452,-0.35219 -2.96488,4.61573 0.41757,6.0033 -3.44285,3.39387 -5.89629,-16.3081 2.13917,2.55444 -4.57704,5.79861 -3.03268,1.4649 -0.73027,-7.02948 -2.75473,-9.72106 -0.73349,-0.9752 -1.7315,1.72717 -2.68656,2.48671 -0.0805,0.064 -5.15064,3.42176 -5.30275,3.52257 -6.20225,-9.99733 1.41715,-0.0496 -4.48271,1.54531 -1.56472,0.423 -0.35698,-3.79932 -1.8127,-4.51218 -0.975,-0.47746 -0.25482,2.87515 -1.33628,2.97013 -2.33471,0.20504 -0.0837,-11.87055 -1.73996,2.49278 0,0 -0.46429,-28.111 -0.46429,-28.111 z"
       inkscape:connector-curvature="0" />
    <path
       style="opacity:1;fill:#000000;fill-opacity:1;stroke:#000000;stroke-width:3;stroke-linejoin:miter;stroke-miterlimit:4;stroke-dasharray:3, 3;stroke-dashoffset:0;stroke-opacity:1"
       id="path4158"
       d="m 390.97774,573.32291 c -0.23322,-1.41528 0.6682,-4.67749 -0.69967,-4.24583 -12.52594,3.95281 19.41383,13.0193 -2.46395,-3.89295 -1.71408,-1.32504 -0.41355,4.43185 -1.44563,6.33674 -0.28975,0.53479 -1.29779,-0.009 -1.7866,-0.37103 -0.82561,-0.61138 -1.29601,-1.59437 -1.94402,-2.39156 -0.6274,1.39322 -0.77843,3.12306 -1.88221,4.17965 -0.48809,0.46723 -1.31016,-0.33112 -1.96524,-0.49668 -0.65305,-1.59534 -0.89327,-6.14083 -1.95915,-4.78602 -1.97832,2.5146 -0.71113,6.40493 -1.70671,9.44562 -0.19896,0.60767 -1.06115,1.05249 -1.6857,0.91546 -0.73126,-0.16045 -1.03331,-1.08359 -1.54996,-1.62539 -3.30714,-12.41116 0.39681,-2.13084 -2.60422,-1.05033 -1.08027,0.38895 -0.2579,-2.44106 -1.03662,-3.28477 -0.33441,-0.36232 -0.46422,1.02592 -0.94424,1.13858 -2.03612,0.47788 0.59989,-3.25984 -1.54356,0.61926 -0.66102,-5.5644 -0.25125,-5.78994 -1.18296,-0.75471 0,0 0.62206,-24.46844 0.62206,-24.46844 v 0 c 0.98364,-4.59964 0.56039,-4.26677 1.16493,1.1191 0.22228,-0.53192 0.39555,-1.08709 0.66684,-1.59576 0.19166,-0.35938 0.55708,-0.61592 0.71331,-0.99206 0.36388,-0.87603 -0.0748,-2.43564 0.82948,-2.7222 1.75639,-0.5566 0.19298,5.57282 1.98803,5.15751 1.21717,-0.28161 0.84308,-2.3521 1.26461,-3.52815 4.53408,-0.20458 2.08921,-1.32515 4.79454,3.86606 0.54425,1.04434 0.93837,3.68205 1.88828,2.98598 1.60912,-1.17911 0.816,-3.97685 1.81799,-5.70183 0.33774,-0.58142 1.2635,-0.46046 1.89525,-0.6907 0.6235,0.25048 1.38163,0.29047 1.8705,0.75144 0.78918,0.74415 0.7679,3.04156 1.80081,2.71039 1.28302,-0.41137 0.9972,-2.5035 1.4787,-3.76188 0.42669,-1.11516 0.54968,-2.3883 1.24576,-3.35841 0.20703,-0.28854 0.70292,0.10183 1.05437,0.15274 0.239,-1.75366 0.47799,-3.50732 0.71698,-5.26098 0,0 0.588,35.60115 0.588,35.60115 z"
       inkscape:connector-curvature="0" />
    <path
       style="opacity:1;fill:#000000;fill-opacity:1;stroke:#000000;stroke-width:3;stroke-linejoin:miter;stroke-miterlimit:4;stroke-dasharray:3, 3;stroke-dashoffset:0;stroke-opacity:1"
       id="path4160"
       d="m 509.73681,399.86606 c -2.0169,5.57032 0.22251,-13.24126 -3.05145,-11.18682 -1.93761,1.21586 -0.22575,5.63262 -2.36528,6.44198 -1.65389,0.62565 -1.14141,-4.08705 -2.86953,-4.46171 -1.44589,-0.31347 -1.95082,2.24779 -3.11169,3.16497 -0.97959,0.77397 -2.16671,1.24091 -3.25007,1.86136 -8.47336,-11.90332 1.68414,-0.703 -6.32225,-0.26511 -1.65425,0.0905 -1.6249,-5.07599 -2.90937,-4.02965 -2.22725,1.81435 0.45771,7.60184 -2.32955,8.29733 -6.1241,1.5281 0.74293,-16.16171 -3.77598,-2.54074 -3.26757,5.87103 1.31026,-1.16981 -2.12044,-0.78023 -0.98053,0.11135 -0.33528,1.95093 -0.37147,2.93709 0.0374,1.37555 0.0748,2.7511 0.11226,4.12665 -0.24306,-1.23338 -0.17266,-1.45809 -0.2647,-0.65496 -0.76481,0.3586 0.5034,-0.28409 -0.26087,1.98295 -0.0777,0.23041 -0.45862,0.1884 -0.63955,0.35085 -0.28414,0.25511 -0.53829,0.55205 -0.73237,0.88091 -1.63229,2.76586 -0.34645,3.18922 -2.50657,-1.78931 -0.40653,1.7556 0.44409,4.5743 -1.21959,5.2668 -2.95834,1.23141 -0.32747,-6.92487 -4.12568,-3.52422 -0.66172,0.59245 -3.17171,5.821 -4.41023,6.16341 -0.95512,0.26405 -1.72936,-0.96808 -2.59405,-1.45213 -0.77943,1.4264 -1.28817,3.03848 -2.3383,4.27918 -0.59957,0.70838 -1.67467,0.81912 -2.43151,1.35622 -1.04742,0.74333 -5.11911,4.66464 -6.69113,4.26135 -0.93353,-0.2395 -1.43297,-1.28918 -2.14945,-1.93377 -2.1672,3.29065 -0.96985,7.46852 -2.36578,10.92226 -0.18418,0.45568 -0.98438,-1.36019 -1.16544,-0.90326 -0.15611,0.39395 -0.19222,4.5055 -0.21004,5.90143 -0.20583,-7.20402 -0.41165,-14.40804 -0.61747,-21.61207 0.31422,-1.68456 0.39446,-3.43012 0.94265,-5.05369 0.18556,-0.54958 0.10081,1.1562 0.17927,1.73093 0.12151,0.89011 -0.47713,2.70017 0.42043,2.66212 0.98832,-0.0419 0.23501,-2.39256 1.16512,-2.72934 0.68567,-0.24827 0.83931,1.23372 1.00255,1.94445 0.47667,2.07536 0.59785,4.21662 0.89678,6.32493 3.37345,-9.98278 1.80687,-0.62327 4.3367,1.83465 0.38512,0.37418 1.01632,-0.43141 1.55326,-0.42698 1.95632,0.59496 0.96864,0.46066 2.95956,0.42762 0.36296,1.80465 -0.31365,6.6062 1.08887,5.41395 2.06296,-1.75366 0.41796,-5.61042 1.84738,-7.90997 0.59523,-0.95757 0.30327,2.38585 1.07618,3.20674 0.33388,0.3546 1.06842,-1.14228 1.28045,-0.70382 0.76871,1.58962 0.53929,3.4918 0.90331,5.21959 0.25305,1.20111 0.63075,2.37254 0.94613,3.55881 0.34022,0.89012 0.12863,2.3352 1.02066,2.67036 0.70914,0.26645 0.97808,-1.15708 1.46712,-1.73562 0.37267,1.13623 0.18721,2.658 1.11801,3.40868 0.52377,0.42242 1.25854,-1.75762 1.62717,-1.19469 4.04457,6.17626 -1.62724,5.66212 3.32433,5.51555 0.59605,2.89597 0.16826,6.21447 1.78814,8.68791 0.59676,0.91121 1.76845,-1.35913 2.81592,-1.65784 0.90557,-0.25824 1.9955,-0.39716 2.8246,0.0493 1.18995,0.6408 1.43892,2.71848 2.76823,2.96248 7.73381,1.41955 -1.73682,-8.06556 6.06283,1.80424 6.49945,27.6946 -1.41101,4.79601 6.09756,4.31949 2.26909,-0.14401 0.64443,5.23427 2.66366,6.27936 1.33457,0.69073 1.56997,-3.6166 3.04416,-3.32517 11.87846,2.34828 -3.90465,6.45434 5.05857,3.59634 0.74828,0.52248 1.33466,1.50053 2.24484,1.56743 0.85234,0.0626 1.49528,-1.6466 2.24558,-1.23737 1.10506,0.60274 1.01536,2.3134 1.68332,3.38031 0.41009,0.65501 1.27864,1.01331 1.52581,1.74551 0.59134,1.75171 -0.93677,5.39358 0.91042,5.47124 1.86827,0.0785 1.09501,-3.57594 1.64252,-5.3639 0.0497,2.84756 0.0995,5.69513 0.14923,8.54269 0.26202,-0.007 0.62963,-0.23198 0.78606,-0.0217 0.345,0.46383 -0.0211,2.01871 0.44462,1.67625 0.72574,-0.53365 0.40494,-1.77009 0.79031,-2.58432 0.0617,-0.13043 0.28859,-6e-5 0.43288,-8e-5 0.36242,-2.78009 0.72485,-5.56018 1.08727,-8.34026 -0.13227,2.44082 -0.26454,4.88165 -0.39681,7.32248 0.13798,-0.31154 0.27735,-1.24675 0.41396,-0.93461 0.35779,0.81751 0.17316,1.77877 0.33924,2.65556 0.13609,0.71848 -0.0309,2.54322 0.56527,2.11969 2.63578,-1.87264 -0.33892,-4.91404 1.93282,-2.09636 0.32977,0.6927 0.65954,1.3854 0.98931,2.07811 0.27885,1.85158 0.17971,3.80126 0.83654,5.55474 0.1411,0.37667 0.94808,0.19795 1.20125,-0.11461 0.72379,-0.89359 0.67967,-4.00657 1.43329,-3.13799 2.46391,2.83977 -1.03354,9.72235 2.03101,2.38724 1.10666,0.92633 0.29414,2.99753 1.26611,4.00555 0.19339,0.20056 0.62702,-0.76068 0.6793,-0.48702 0.22473,1.17654 -0.0356,2.39565 -0.0861,3.59239 -0.98301,23.299 -1.39226,13.22131 -0.41524,27.52997 -4.22289,-3.67759 0.81803,-3.93766 -2.09948,2.74722 -0.27226,0.62383 -0.5464,-1.5255 -1.21746,-1.63931 -0.52489,-0.089 -0.63154,0.85796 -0.97091,1.26816 -0.33528,0.40527 -0.70106,0.78432 -1.05159,1.17648 -0.27082,2.01993 0.28618,4.34326 -0.81246,6.05977 1.99567,-1.24024 -1.93549,-3.45618 -2.64373,-2.47783 -0.65954,0.91108 -0.80981,2.10038 -1.14527,3.17393 -1.9228,6.15328 -0.19353,2.22889 -2.38312,6.70482 -0.49701,-1.24224 -0.95808,-2.49946 -1.49101,-3.72671 -0.43729,-1.00701 -0.37792,-2.62163 -1.41816,-2.9726 -0.76311,-0.25748 -0.78988,1.40526 -1.23201,2.07843 -1.20015,1.8273 -1.43023,2.30144 -3.53187,2.16614 -0.34066,-0.87366 -0.64606,-1.7619 -1.02198,-2.62098 -2.26883,-5.18485 -2.01529,0.37464 -2.84065,2.38744 -0.11076,0.2701 -0.61094,0.49669 -0.82389,0.297 -0.5057,-0.47421 -0.58174,-1.25857 -0.87262,-1.88786 -0.28963,10e-4 -0.69414,-0.22705 -0.86891,0.004 -0.0106,0.014 -1.71986,4.61462 -1.72882,4.58633 -0.87669,-2.76696 -10e-4,-5.95743 -1.12144,-8.63506 -0.49922,-1.19323 -0.1122,2.75592 -0.91342,3.77133 -0.34417,0.43617 -0.68377,-0.87592 -1.02566,-1.31388 -0.32822,1.51549 -0.49753,3.07435 -0.98466,4.54647 -0.20141,0.60864 -0.41402,1.66783 -1.05248,1.60976 -0.68243,-0.0621 -0.74316,-1.16091 -0.9995,-1.7964 -0.42926,-1.06418 -0.63591,-2.20813 -1.04782,-3.27915 -0.29391,-0.7642 -0.63859,-2.91275 -1.06469,-2.21358 -0.98624,1.61831 -0.66496,3.73153 -0.99744,5.5973 -2.64857,-5.90086 0.5715,-0.17895 -2.13915,0.83484 -0.84449,0.31584 -0.73404,-1.64708 -1.10106,-2.47062 -0.34352,2.48635 0.98469,5.96282 -1.03056,7.45904 -1.19871,-6.33387 0.3833,-7.18541 -2.17533,-4.9314 -0.35368,-1.58629 -0.52202,-3.22562 -1.06103,-4.75888 -0.17619,-0.5012 -0.7795,-0.74552 -1.0373,-1.21004 -0.43592,-0.78547 -0.59358,-3.28619 -1.01888,-2.49493 -1.01061,1.8802 -0.0279,4.43814 -1.03673,6.31931 -0.4281,0.79829 -0.19532,-2.1052 -0.99627,-2.52831 -0.52511,-0.27739 -0.66988,0.98082 -1.00482,1.47122 -3.85518,-7.8373 -0.57191,16.39195 -2.99714,9.32268 -1.5096,-4.4003 0.41775,-9.46947 -0.91672,-13.926 -0.77142,-2.57618 -0.56734,5.34838 -0.85102,8.02258 -0.27475,-1.53732 -0.54951,-3.07464 -0.82427,-4.61195 0,0 -0.22704,-23.33285 -0.22704,-23.33285 v 0 c 0.326,1.26609 0.45291,4.9956 0.97799,3.79829 1.127,-2.56981 0.23445,-5.66246 1.02085,-8.35609 1.06817,-3.65879 0.51797,4.5081 1.98401,1.84496 1.87657,-3.40888 0.21149,-8.47532 1.96931,1.31152 1.63964,5.75138 0.18044,3.38976 1.96627,1.15856 0.21209,-0.26499 0.81337,0.0493 0.98933,-0.24091 1.12999,-1.86388 0.43403,-5.31515 2.99036,-2.3851 1.46507,2.73194 0.76333,2.56929 2.02433,-0.75637 1.09775,1.53783 -0.37255,4.34806 1.07193,5.56602 1.00448,0.84696 0.3746,-2.6603 1.0108,-3.8099 0.17005,-0.30729 0.87519,-0.21867 1.0501,0.0859 0.63248,1.10123 0.73001,2.4327 1.09501,3.64905 0.34216,-1.05273 0.33995,-2.28986 1.02647,-3.1582 0.84015,-1.06263 1.50343,2.14904 2.13752,1.98403 0.73331,-0.19082 0.57892,-1.41969 1.03865,-2.02203 0.39041,-0.51152 1.33401,-0.70615 1.89704,-0.87524 0.29715,-0.765 0.56436,-1.54232 0.89146,-2.29501 0.26366,-0.60673 0.33732,-2.15893 0.87908,-1.7793 0.87956,0.61634 0.2648,2.26115 0.96756,3.07332 0.28011,0.32371 0.57895,-1.21142 0.89415,-0.92178 0.69032,0.6343 0.1176,3.0197 0.97404,2.6384 1.08693,-0.48393 0.58222,-2.30727 0.87333,-3.4609 0.25474,1.08903 0.6917,6.00551 1.98992,4.47718 0.53591,-0.6309 0.4092,-1.64835 0.90118,-2.31406 0.19144,-0.25904 0.67951,-0.01 0.94786,-0.1879 0.40697,-0.27016 0.54884,-1.32322 0.9785,-1.09087 0.71042,0.38418 0.69723,1.45706 1.04584,2.18559 0.32903,-0.54284 0.63877,-1.09785 0.98708,-1.62852 0.32344,-0.4928 0.50498,-1.16552 1.02676,-1.43976 1.04534,-0.54944 2.92066,3.00166 2.18955,2.78522 2.5741,-1.43181 -0.79679,-9.94785 2.41387,1.20294 0.33293,-1.78519 0.66586,-3.57038 0.99878,-5.35556 0.44708,0.93326 1.00285,3.77773 1.34124,2.7998 0.9627,-2.78222 -0.17557,-6.00198 0.73549,-8.80154 0.28685,-0.88144 0.87809,1.63291 1.33494,2.43945 0.40637,0.71742 0.87088,1.40199 1.25439,2.13188 0.44296,0.84303 0.81504,1.72144 1.22256,2.58216 0.19113,-1.80613 0.1131,-3.66147 0.57339,-5.4184 0.13156,-0.50214 1.50873,0.36046 1.54934,-0.15704 0.1731,-2.2057 -0.67511,-4.48142 -0.16918,-6.63528 0.49141,-2.09204 0.95097,7.23059 1.64474,6.23359 -0.37517,-3.2563 -1.23441,-13.04495 -1.12551,-9.76891 0.26889,8.08889 1.42211,16.13562 1.60611,24.22689 0.0439,1.93203 -0.61161,3.81638 -0.925,5.72334 -0.23991,1.45982 -0.63336,5.85286 -0.73487,4.37695 -0.25824,-3.75444 1.1029,-7.51971 0.33478,-11.28496 -0.22586,-0.36931 -0.39771,-0.77768 -0.67758,-1.10795 -0.24092,-0.28429 -0.76959,-0.34963 -0.86328,-0.71031 -0.4369,-1.68197 0.0677,-3.59479 -0.66438,-5.17085 -0.33175,-0.7142 -2.84495,4.43005 -3.37153,3.31725 -1.40167,-10.60973 0.21676,-3.03435 -1.75403,-0.56143 -0.24572,0.30833 -0.78725,-4.28826 -1.3263,-3.22447 -1.58515,3.12823 -0.5903,7.1327 -1.47849,1.40078 -0.15339,-0.49269 -0.29238,-0.9901 -0.46017,-1.47807 -0.11893,-0.34586 -0.28263,-1.36848 -0.39946,-1.02191 -0.59338,1.76018 0.0892,4.03459 -1.09781,5.46333 -0.84483,1.01686 0.004,-2.65005 -0.14846,-3.9633 -0.0988,-0.85288 -0.79748,-2.19201 -1.15138,-2.95021 -0.10622,-2.59441 0.35859,-5.27652 -0.31866,-7.78323 -0.24885,-0.92107 -3.69221,6.71367 -2.60548,-1.18503 -0.59856,-2.28226 1.0545,-6.84546 -1.30228,-6.95752 -9.27419,-0.44096 2.00732,12.65708 -4.61048,4.03428 -0.77169,-1.03394 -1.52426,-2.08242 -2.31505,-3.10183 -0.69222,-0.89235 -2.93533,-5.03445 -5.35055,-3.65782 -1.48242,0.84494 -1.75936,4.80419 -3.2427,3.96086 -3.65866,-2.08005 -0.90651,-9.56287 -5.76015,-11.23531 -6.91306,-9.68456 0.75464,-1.10072 -5.99825,-4.50346 -1.14574,-0.57733 -1.67856,-3.14975 -2.83786,-2.60016 -1.92014,0.91027 -1.20063,4.91699 -3.24819,5.48536 -4.05224,1.12483 -1.99836,-15.25871 -4.44558,-11.8072 -0.79049,0.44887 -1.53722,1.70775 -2.37145,1.34662 -1.00435,-0.43477 -2.39001,-6.04622 -2.76969,-6.58005 -0.27775,-0.39052 -0.95227,-0.11096 -1.42554,-0.18628 -0.42884,-0.0682 -0.86775,-0.10663 -1.27962,-0.24421 -0.39446,-0.13175 -0.74453,-0.37083 -1.11679,-0.55625 -3.39531,10.75975 0.38073,0.88539 -2.04844,-1.59953 -1.02136,-1.04479 -0.81509,2.82081 -1.45197,4.13578 -0.26798,0.55331 -1.05051,1.97329 -1.22073,1.38255 -0.75152,-2.60807 -0.47869,-5.40722 -0.71803,-8.11083 -0.37129,-1.24632 -0.74257,-2.49264 -1.11386,-3.73896 -0.5145,0.7692 -1.1279,1.48077 -1.5435,2.3076 -0.67057,1.33407 -0.27373,3.70129 -1.69958,4.14441 -2.33502,0.72566 -0.49449,-8.85104 -2.67901,-7.43345 -3.55713,2.30832 -0.64293,18.50191 -2.89361,-2.99882 -0.54848,0.90818 -1.14348,1.78984 -1.64543,2.72454 -0.60505,1.12671 -0.65541,4.22901 -1.67206,3.45314 -1.46327,-1.11672 -0.38983,-3.68424 -0.93464,-5.44248 -0.15269,-0.49275 -0.87167,-0.63035 -1.09167,-1.09695 -1.5446,-3.27595 0.40459,-2.24102 -1.47811,-3.00364 -0.0249,-10.5091 -0.0497,-21.0182 -0.0746,-31.52729 0.30758,0.26251 0.73562,1.146 0.92274,0.78752 0.60873,-1.16622 -0.18735,-2.90851 0.69409,-3.88508 0.46652,-0.51687 0.88005,1.14455 1.50798,1.44536 1.67355,0.8017 2.36606,-0.57416 3.43015,-1.53341 5.14963,1.99145 0.152,0.88069 3.91288,-6.79857 2.34878,-4.79595 5.34916,6.33849 7.59719,1.01742 1.31464,-3.11172 1.37491,-6.61468 2.06236,-9.92202 0.87867,0.36564 1.68756,1.17559 2.63602,1.09694 0.93491,-0.0775 1.56203,-1.98316 2.37347,-1.51238 1.44495,0.83833 1.22989,5.42315 2.50314,4.34171 2.02614,-1.72091 0.51449,-5.38309 1.58683,-7.81554 0.41082,-0.93189 2.43363,1.33086 3.01376,0.50212 0.11202,-2.43475 -0.20368,-4.92743 0.33606,-7.30425 0.18283,-0.80513 0.55456,1.5562 0.78948,2.34771 0.25865,0.87142 0.38824,1.78084 0.69036,2.63816 0.0279,0.0791 0.25161,0.11359 0.24982,0.0297 -0.028,-1.31075 -0.21849,-2.61297 -0.33279,-3.91902 -0.2198,-2.51164 -0.44634,-5.02269 -0.6695,-7.53403 2.92069,5.64158 -3.4226,-6.95616 2.49725,11.0759 0.25873,0.78808 0.0252,-2.86104 1.34211,-4.77745 0.28152,-0.40968 0.91389,-1.30413 1.19397,-0.89346 1.00875,1.47909 1.11779,3.40173 1.67669,5.10259 0.24548,-0.83404 3.67368,-12.5194 3.72704,-12.52282 2.38333,-0.15249 1.43888,4.61148 2.71441,6.63053 0.66017,1.04498 1.69795,2.47828 2.91907,2.28677 1.47267,-0.23096 1.61074,-3.07359 3.09321,-3.2297 1.38819,-0.14618 2.21211,1.70305 3.31817,2.55457 0.8965,-0.38663 5.73476,-2.3577 6.43748,-3.12477 1.27519,-1.39196 0.98987,-4.90829 2.8774,-4.87789 2.31374,0.0373 1.47593,8.97123 4.35555,3.10452 0.6638,-1.35239 0.80146,-2.90449 1.20219,-4.35674 0,0 0,35.26851 0,35.26851 z"
       inkscape:connector-curvature="0" />
  </g>
</svg>
