<?xml version="1.0" encoding="iso-8859-1"?>
<!-- Generator: Adobe Illustrator 19.0.0, SVG Export Plug-In . SVG Version: 6.00 Build 0)  -->
<svg version="1.1" id="Capa_1" xmlns="http://www.w3.org/2000/svg" xmlns:xlink="http://www.w3.org/1999/xlink" x="0px" y="0px"
	 viewBox="0 0 512.001 512.001" style="enable-background:new 0 0 512.001 512.001;" xml:space="preserve">
<circle style="fill:#FFC639;" cx="170.669" cy="406.98" r="24"/>
<circle style="fill:#72DD90;" cx="429.829" cy="256" r="24"/>
<circle style="fill:#FF4A4A;" cx="169.02" cy="104.73" r="24"/>
<g>
	<polygon style="fill:#039FDD;" points="323.94,285.235 256.003,311.235 256.003,230 323.94,204 	"/>
	<polygon style="fill:#039FDD;" points="188.065,285.235 256.003,311.235 256.003,230 188.065,204 	"/>
</g>
<path d="M203.135,455.19c-0.001-0.001-0.036-0.06-0.037-0.061c-2.892-4.704-9.031-6.146-13.736-3.255
	c-4.705,2.89-6.159,9.076-3.27,13.782l0.189,0.307c1.896,3.037,5.157,4.705,8.492,4.705c1.809,0,3.64-0.491,5.286-1.519
	c4.685-2.925,6.111-9.094,3.187-13.779L203.135,455.19z"/>
<path d="M468.944,199.621c-4.827-2.686-10.915-0.953-13.602,3.873l-0.153,0.281c-2.609,4.867-0.778,10.928,4.089,13.537
	c1.504,0.806,3.121,1.188,4.716,1.188c3.567,0,7.02-1.914,8.823-5.278C475.504,208.397,473.769,202.308,468.944,199.621z"/>
<path d="M457.666,275.493c3.881-5.524,6.168-12.245,6.168-19.493c0-18.748-15.252-34-34-34c-5.402,0-10.511,1.272-15.052,3.524
	c-13.078-12.637-27.464-24.856-42.806-36.434c-3.33-27.026-8.685-52.608-15.886-75.843c4.276-0.649,8.513-1.203,12.695-1.636
	c40.793-4.222,71.589,2.761,86.715,19.659c9.89,11.048,12.869,26.029,8.856,44.525c-1.171,5.397,2.255,10.722,7.652,11.893
	c5.397,1.173,10.723-2.255,11.893-7.652c5.373-24.762,0.704-46.237-13.5-62.105c-19.799-22.118-55.649-31.184-103.675-26.213
	c-5.64,0.584-11.387,1.368-17.217,2.324c-2.086-5.527-4.281-10.896-6.596-16.073C320.456,27.747,289.626,0.056,256.102,0
	c-0.034,0-0.067,0-0.102,0c-31.935,0-61.454,25.116-83.609,70.902c-1.109-0.11-2.233-0.168-3.371-0.168c-18.748,0-34,15.252-34,34
	c0,11.861,6.109,22.317,15.342,28.403c-4.497,17.879-7.946,36.655-10.339,55.917c-21.722,16.387-41.182,33.804-57.692,51.645
	c-2.7-3.378-5.298-6.771-7.764-10.177c-23.385-32.295-32.916-61.872-26.836-83.282c3.756-13.225,13.386-23.112,28.622-29.387
	c5.106-2.104,7.541-7.948,5.438-13.055s-7.945-7.541-13.055-5.438c-20.891,8.604-34.807,23.271-40.244,42.417
	c-7.902,27.826,2.429,62.57,29.876,100.475c3.326,4.593,6.878,9.178,10.622,13.749c-3.743,4.57-7.296,9.156-10.622,13.749
	C26.067,314.358,17.519,354.934,34.3,384c14.192,24.583,44.565,37.591,86.744,37.589c5.956,0,12.159-0.267,18.576-0.79
	c5.308,11.876,17.224,20.176,31.051,20.176c18.314,0,33.283-14.556,33.967-32.705c16.961-4.934,34.174-11.126,51.31-18.386
	c25.075,10.632,49.911,18.787,73.638,24.169c-1.576,4.028-3.215,7.974-4.931,11.813c-16.356,36.577-37.308,59.644-58.994,64.952
	c-13.519,3.308-27.067-0.322-40.274-10.791c-4.329-3.431-10.618-2.703-14.049,1.625s-2.703,10.618,1.625,14.048
	c13.612,10.789,28.265,16.301,43.035,16.301c4.804,0,9.621-0.583,14.418-1.757c28.221-6.907,53.29-33.262,72.497-76.215
	c2.315-5.177,4.51-10.546,6.596-16.073c5.829,0.956,11.577,1.74,17.217,2.324c8.453,0.875,16.54,1.308,24.234,1.308
	c42.174,0,72.553-13.008,86.744-37.589C493.762,356.187,486.612,317.833,457.666,275.493z M443.834,256c0,7.72-6.28,14-14,14
	s-14-6.28-14-14s6.28-14,14-14S443.834,248.28,443.834,256z M400.244,239.284c-2.802,4.94-4.411,10.642-4.411,16.716
	s1.609,11.776,4.411,16.716c-8.055,7.75-16.63,15.329-25.622,22.691c0.909-12.924,1.38-26.088,1.38-39.408
	s-0.471-26.484-1.38-39.408C383.615,223.954,392.189,231.533,400.244,239.284z M158.868,199.943
	c29.913-21.802,63.241-41.047,97.078-56.058c33.893,15.026,67.24,34.266,97.177,56.088c3.918,36.793,3.919,75.262,0,112.054
	c-29.937,21.822-63.284,41.062-97.177,56.088c-33.835-15.01-67.163-34.255-97.075-56.056
	C154.914,275.208,154.911,236.79,158.868,199.943z M349.497,173.048c-21.715-14.68-44.807-28.026-68.387-39.498
	c18.622-7.035,37.175-12.665,55.183-16.615C341.877,134.51,346.279,153.398,349.497,173.048z M256.004,20c0.021,0,0.043,0,0.064,0
	c24.813,0.042,49.812,24.146,68.587,66.134c1.716,3.839,3.355,7.785,4.931,11.813c-23.727,5.382-48.563,13.537-73.637,24.169
	c-17.694-7.496-35.471-13.857-52.966-18.866c-0.426-9.846-5.057-18.617-12.14-24.561C209.18,41.283,232.69,20,256.004,20z
	 M169.021,90.734c7.72,0,14,6.28,14,14s-6.28,14-14,14s-14-6.28-14-14S161.301,90.734,169.021,90.734z M169.577,138.72
	c11.963-0.193,22.442-6.59,28.351-16.114c10.89,3.131,21.89,6.792,32.909,10.955c-11.653,5.677-23.294,11.853-34.834,18.516
	c-11.545,6.666-22.719,13.662-33.466,20.918C164.466,161.286,166.805,149.82,169.577,138.72z M137.354,216.56
	c-1.866,26.128-1.867,52.749-0.001,78.879c-15.383-12.596-29.517-25.834-41.927-39.439
	C107.835,242.395,121.969,229.156,137.354,216.56z M51.621,374c-12.418-21.509-4.055-55.232,22.947-92.522
	c2.466-3.406,5.064-6.798,7.764-10.177c16.51,17.842,35.972,35.259,57.695,51.647c2.425,19.522,5.938,38.543,10.525,56.641
	c-6.862,5.055-11.758,12.623-13.331,21.334C94.52,404.241,63.488,394.557,51.621,374z M170.673,420.976c-7.72,0-14-6.28-14-14
	s6.28-14,14-14s14,6.28,14,14S178.391,420.976,170.673,420.976z M199.477,388.945c-6.02-9.582-16.678-15.969-28.805-15.969
	c-0.39,0-0.776,0.016-1.164,0.03c-2.742-11.015-5.058-22.388-6.971-34c10.747,7.257,21.92,14.252,33.466,20.918
	c11.541,6.663,23.182,12.84,34.834,18.516C220.339,382.405,209.86,385.913,199.477,388.945z M281.109,378.45
	c23.58-11.472,46.673-24.819,68.388-39.498c-3.218,19.65-7.62,38.538-13.205,56.113C318.284,391.115,299.731,385.485,281.109,378.45
	z M460.384,374c-12.418,21.508-45.81,31.125-91.6,26.388c-4.182-0.433-8.419-0.987-12.695-1.636
	c7.201-23.235,12.557-48.817,15.886-75.843c15.343-11.578,29.728-23.796,42.806-36.433c4.541,2.252,9.65,3.524,15.052,3.524
	c4.23,0,8.28-0.783,12.019-2.201C465.315,322.561,472.097,353.714,460.384,374z"/>
<path d="M107.5,110.41c0.054,0,0.107,0,0.162-0.001l0.369-0.006c5.522-0.087,9.929-4.634,9.842-10.156
	c-0.086-5.469-4.546-9.843-9.996-9.843c-0.053,0-0.106,0-0.16,0.001l-0.373,0.006c-5.521,0.087-9.927,4.635-9.84,10.157
	C97.59,106.037,102.05,110.41,107.5,110.41z"/>
<path d="M252.449,320.553c1.141,0.435,2.341,0.683,3.555,0.683c1.205,0,2.416-0.218,3.573-0.661l67.938-26
	c3.87-1.481,6.426-5.196,6.426-9.339V204c0-3.292-1.62-6.373-4.332-8.238s-6.168-2.278-9.242-1.101l-64.363,24.632l-64.363-24.632
	c-3.074-1.177-6.532-0.765-9.242,1.101c-2.712,1.866-4.332,4.947-4.332,8.238v81.235c0,4.144,2.556,7.858,6.426,9.339l67.938,26
	C252.436,320.567,252.441,320.56,252.449,320.553z M313.94,278.355l-47.938,18.346V236.88l47.938-18.346V278.355z M198.065,218.534
	l47.938,18.346v59.821l-47.938-18.346V218.534z"/>
<g>
</g>
<g>
</g>
<g>
</g>
<g>
</g>
<g>
</g>
<g>
</g>
<g>
</g>
<g>
</g>
<g>
</g>
<g>
</g>
<g>
</g>
<g>
</g>
<g>
</g>
<g>
</g>
<g>
</g>
</svg>
